<svg width="12" height="12" viewBox="0 0 12 12" fill="none" xmlns="http://www.w3.org/2000/svg">
<g clip-path="url(#clip0_90_16)">
<path d="M11.874 2.24088C11.747 2.17888 11.692 2.29738 11.618 2.35788C11.5925 2.37738 11.571 2.40288 11.5495 2.42588C11.3635 2.62438 11.1465 2.75438 10.863 2.73888C10.4485 2.71588 10.0945 2.84588 9.78148 3.16288C9.71498 2.77188 9.49398 2.53888 9.15798 2.38888C8.98198 2.31088 8.80398 2.23338 8.68048 2.06388C8.59448 1.94338 8.57098 1.80888 8.52798 1.67688C8.50048 1.59688 8.47298 1.51538 8.38148 1.50188C8.28148 1.48638 8.24247 1.56988 8.20347 1.63988C8.04698 1.92588 7.98647 2.24088 7.99247 2.55988C8.00597 3.27788 8.30898 3.84988 8.91148 4.25638C8.97998 4.30288 8.99748 4.34988 8.97598 4.41788C8.93498 4.55788 8.88598 4.69388 8.84298 4.83438C8.81548 4.92388 8.77448 4.94288 8.67848 4.90438C8.3541 4.76497 8.05946 4.5647 7.81047 4.31438C7.38197 3.90038 6.99497 3.44338 6.51197 3.08538C6.40006 3.00269 6.28515 2.92413 6.16747 2.84988C5.67497 2.37138 6.23247 1.97838 6.36147 1.93188C6.49647 1.88288 6.40797 1.71588 5.97197 1.71788C5.53597 1.71988 5.13697 1.86538 4.62847 2.05988C4.55291 2.08883 4.47517 2.11174 4.39597 2.12838C3.92079 2.03884 3.4348 2.02165 2.95447 2.07738C2.01197 2.18238 1.25947 2.62838 0.705975 3.38888C0.0409748 4.30288 -0.115525 5.34188 0.0759748 6.42488C0.277475 7.56688 0.860475 8.51238 1.75597 9.25138C2.68497 10.0179 3.75447 10.3934 4.97497 10.3214C5.71597 10.2789 6.54147 10.1794 7.47197 9.39138C7.70697 9.50838 7.95298 9.55488 8.36198 9.58988C8.67698 9.61938 8.97998 9.57488 9.21448 9.52588C9.58198 9.44788 9.55647 9.10738 9.42397 9.04538C8.34648 8.54338 8.58298 8.74788 8.36748 8.58238C8.91548 7.93438 9.74048 7.26138 10.0635 5.08088C10.0885 4.90738 10.067 4.79838 10.0635 4.65838C10.0615 4.57338 10.081 4.53988 10.1785 4.53038C10.449 4.50231 10.7114 4.42163 10.951 4.29288C11.649 3.91138 11.931 3.28538 11.9975 2.53438C12.0075 2.41938 11.9955 2.30138 11.874 2.24088ZM5.79047 8.99988C4.74597 8.17888 4.23947 7.90838 4.03047 7.91988C3.83447 7.93188 3.86997 8.15538 3.91297 8.30138C3.95797 8.44538 4.01647 8.54438 4.09847 8.67088C4.15547 8.75438 4.19447 8.87888 4.04197 8.97238C3.70547 9.18038 3.12097 8.90238 3.09347 8.88888C2.41297 8.48788 1.84347 7.95888 1.44297 7.23538C1.05597 6.53888 0.830975 5.79188 0.793975 4.99438C0.783975 4.80138 0.840475 4.73338 1.03247 4.69838C1.28453 4.65014 1.54279 4.64356 1.79697 4.67888C2.86297 4.83488 3.76997 5.31138 4.53097 6.06588C4.96497 6.49588 5.29347 7.00938 5.63197 7.51138C5.99197 8.04438 6.37897 8.55238 6.87197 8.96838C7.04597 9.11438 7.18447 9.22538 7.31747 9.30688C6.91647 9.35188 6.24747 9.36188 5.79047 8.99988ZM6.29047 5.77988C6.29039 5.75504 6.29635 5.73056 6.30784 5.70854C6.31934 5.68652 6.33602 5.66763 6.35645 5.6535C6.37688 5.63937 6.40044 5.63043 6.4251 5.62745C6.44975 5.62447 6.47477 5.62753 6.49797 5.63638C6.52756 5.64699 6.55309 5.66657 6.57101 5.69238C6.58894 5.71819 6.59836 5.74895 6.59797 5.78038C6.59804 5.80068 6.59407 5.8208 6.58629 5.83955C6.5785 5.8583 6.56706 5.87532 6.55264 5.8896C6.53821 5.90389 6.52108 5.91516 6.50226 5.92276C6.48343 5.93037 6.46328 5.93414 6.44297 5.93388C6.42283 5.93395 6.40286 5.93 6.38426 5.92226C6.36566 5.91452 6.34878 5.90314 6.33463 5.8888C6.32048 5.87446 6.30932 5.85744 6.30183 5.83874C6.29433 5.82004 6.29014 5.80002 6.29047 5.77988ZM7.84547 6.57788C7.74547 6.61838 7.64597 6.65338 7.55047 6.65788C7.4068 6.66289 7.26582 6.61801 7.15147 6.53088C7.01447 6.41588 6.91647 6.35188 6.87547 6.15188C6.86134 6.05414 6.86405 5.9547 6.88347 5.85788C6.91847 5.69438 6.87947 5.58938 6.76397 5.49438C6.67047 5.41638 6.55097 5.39488 6.41997 5.39488C6.37512 5.39227 6.33156 5.3789 6.29297 5.35588C6.23797 5.32888 6.19297 5.26088 6.23597 5.17688C6.24997 5.14988 6.31597 5.08388 6.33197 5.07188C6.50997 4.97088 6.71547 5.00388 6.90497 5.07988C7.08097 5.15188 7.21397 5.28388 7.40547 5.47088C7.60097 5.69638 7.63647 5.75888 7.74797 5.92788C7.83597 6.06038 7.91597 6.19638 7.97047 6.35188C8.00397 6.44938 7.96097 6.52888 7.84547 6.57788Z" fill="#4D6BFE"/>
</g>
<defs>
<clipPath id="clip0_90_16">
<rect width="12" height="12" fill="white"/>
</clipPath>
</defs>
</svg>
