<svg width="12" height="12" viewBox="0 0 12 12" fill="none" xmlns="http://www.w3.org/2000/svg">
<g clip-path="url(#clip0_90_55)">
<path fill-rule="evenodd" clip-rule="evenodd" d="M6.17 2.9765C6.11575 2.79211 6.07448 2.60415 6.0465 2.414V1.86C7.08062 1.87024 8.07317 2.26854 8.8275 2.976L6.17 2.9765ZM5.825 2.9765C5.8815 2.79 5.9245 2.599 5.9535 2.404V1.86C4.91938 1.87024 3.92683 2.26854 3.1725 2.976H5.8245L5.825 2.9765ZM3.1085 3.07H5.795C5.75595 3.18802 5.7114 3.30414 5.6615 3.418C5.45513 3.91163 5.15646 4.36134 4.7815 4.743L3.1085 3.07ZM2.9765 2.9765H1.4885V3.07H2.946C2.19964 3.84559 1.77803 4.87717 1.7675 5.9535H0V6.0465H1.7675C1.77803 7.12283 2.19964 8.15441 2.946 8.93H1.4885V9.023H2.9765V10.5115H3.07V9.054C3.84559 9.80036 4.87717 10.222 5.9535 10.2325V12H6.0465V10.2325C7.12283 10.222 8.15441 9.80036 8.93 9.054V10.5115H9.023V9.023H10.5115V8.93H9.054C9.80036 8.15441 10.222 7.12283 10.2325 6.0465H12V5.9535H10.2325C10.222 4.87717 9.80036 3.84559 9.054 3.07H10.5115V2.9765H9.023V1.4885H8.93V2.946C8.15441 2.19964 7.12283 1.77803 6.0465 1.7675V0H5.9535V1.7675C4.87717 1.77803 3.84559 2.19964 3.07 2.946V1.4885H2.9765V2.9765ZM6.0465 10.1395C7.08069 10.1291 8.07325 9.73064 8.8275 9.023H6.17C6.116 9.2065 6.075 9.3945 6.0465 9.586V10.1395ZM5.9535 9.596C5.92457 9.4021 5.88146 9.21059 5.8245 9.023H3.1725C3.92675 9.73064 4.91931 10.1291 5.9535 10.1395V9.596ZM1.8605 5.9535H2.414C2.60415 5.92552 2.79211 5.88425 2.9765 5.83V3.1725C2.26904 3.92683 1.87074 4.91938 1.8605 5.9535ZM2.404 6.0465H1.86C1.87024 7.08062 2.26854 8.07317 2.976 8.8275V6.1755C2.78858 6.11856 2.59773 6.07545 2.404 6.0465ZM10.139 5.9535C10.1288 4.91938 9.73046 3.92683 9.023 3.1725V5.83C9.2065 5.884 9.3945 5.925 9.586 5.9535H10.139ZM9.596 6.0465C9.401 6.0755 9.21 6.1185 9.023 6.1755V8.8275C9.73064 8.07325 10.1291 7.08069 10.1395 6.0465H9.596ZM8.93 8.8915V6.205C8.81198 6.24405 8.69585 6.2886 8.582 6.3385C8.08837 6.54486 7.63865 6.84353 7.257 7.2185L8.93 8.8915ZM8.93 5.8015V3.0765L8.924 3.07H6.1985C6.2365 3.1875 6.2795 3.304 6.3285 3.418C6.54466 3.9191 6.85319 4.37503 7.238 4.762C7.62493 5.14699 8.08086 5.45569 8.582 5.672C8.696 5.7205 8.812 5.7635 8.93 5.8015ZM3.07 8.924V6.205C3.1875 6.244 3.304 6.2885 3.418 6.3385C3.92002 6.54847 4.37648 6.85396 4.762 7.238C5.14603 7.62353 5.45152 8.07998 5.6615 8.582C5.7115 8.696 5.7565 8.812 5.795 8.93H3.076L3.07 8.924ZM3.07 5.8015V3.163L4.715 4.808C4.33809 5.17159 3.89873 5.46427 3.418 5.672C3.30403 5.72044 3.18791 5.76365 3.07 5.8015ZM6.1985 8.93H8.837L7.192 7.285C6.82841 7.66191 6.53573 8.10127 6.328 8.582C6.27956 8.69597 6.23635 8.81209 6.1985 8.93ZM5.025 5.025C4.60999 5.43822 4.12167 5.77055 3.585 6.005C4.12257 6.23334 4.61139 6.56262 5.025 6.975C5.43738 7.38861 5.76666 7.87743 5.995 8.415C6.22945 7.87833 6.56178 7.39001 6.975 6.975C7.38861 6.56262 7.87743 6.23334 8.415 6.005C7.87833 5.77055 7.39001 5.43822 6.975 5.025C6.56177 4.61 6.22944 4.12167 5.995 3.585C5.76666 4.12257 5.43738 4.61139 5.025 5.025Z" fill="url(#paint0_linear_90_55)"/>
</g>
<defs>
<linearGradient id="paint0_linear_90_55" x1="293.028" y1="906.972" x2="902.328" y2="302.328" gradientUnits="userSpaceOnUse">
<stop stop-color="#446EFF"/>
<stop offset="0.36661" stop-color="#2E96FF"/>
<stop offset="0.83221" stop-color="#B1C5FF"/>
</linearGradient>
<clipPath id="clip0_90_55">
<rect width="12" height="12" fill="white"/>
</clipPath>
</defs>
</svg>
