<svg width="12" height="12" viewBox="0 0 12 12" fill="none" xmlns="http://www.w3.org/2000/svg">
<g clip-path="url(#clip0_90_61)">
<path d="M11.5003 6.12207C11.5003 5.66957 11.4628 5.33957 11.3823 4.99707H6.1123V7.03857H9.2053C9.1433 7.54557 8.8068 8.30957 8.0583 8.82307L8.0478 8.89107L9.7138 10.1561L9.8288 10.1671C10.8898 9.20807 11.5003 7.79607 11.5003 6.12207Z" fill="#4285F4"/>
<path d="M6.11263 11.5004C7.62763 11.5004 8.89963 11.0114 9.82913 10.1679L8.05813 8.82389C7.58413 9.14789 6.94813 9.37389 6.11263 9.37389C5.40836 9.37395 4.72174 9.15354 4.14909 8.74356C3.57645 8.33358 3.14652 7.75461 2.91963 7.08789L2.85363 7.09339L1.12113 8.40739L1.09863 8.46939C2.02163 10.2659 3.91763 11.5004 6.11263 11.5004Z" fill="#34A853"/>
<path d="M2.92 7.08741C2.79702 6.73794 2.73331 6.37038 2.7315 5.99991C2.7315 5.62091 2.8005 5.25441 2.912 4.91241L2.909 4.83891L1.155 3.50391L1.0975 3.53091C0.705396 4.29489 0.500596 5.14117 0.5 5.99991C0.5 6.88591 0.718 7.72341 1.0985 8.46891L2.92 7.08741Z" fill="#FBBC05"/>
<path d="M6.11263 2.6265C7.16663 2.6265 7.87713 3.0725 8.28263 3.4455L9.86613 1.93C8.89363 1.044 7.62763 0.5 6.11263 0.5C3.91713 0.5 2.02163 1.7345 1.09863 3.531L2.91363 4.9125C3.14248 4.24583 3.57372 3.66722 4.1472 3.25742C4.72068 2.84761 5.40778 2.62705 6.11263 2.6265Z" fill="#EB4335"/>
</g>
<defs>
<clipPath id="clip0_90_61">
<rect width="12" height="12" fill="white"/>
</clipPath>
</defs>
</svg>
