<svg width="12" height="12" viewBox="0 0 12 12" fill="none" xmlns="http://www.w3.org/2000/svg">
<g clip-path="url(#clip0_90_97)">
<path d="M4.5386 7.49174L8.58032 4.50459C8.77848 4.35816 9.06169 4.41527 9.15611 4.64275C9.65302 5.84238 9.43101 7.28403 8.44234 8.27386C7.45372 9.26366 6.07811 9.48074 4.82079 8.98636L3.44727 9.62306C5.4173 10.9712 7.80954 10.6378 9.30445 9.14009C10.4902 7.9529 10.8575 6.33468 10.5141 4.87541L10.5172 4.87851C10.0192 2.73475 10.6396 1.87787 11.9104 0.125676C11.9405 0.0841304 11.9706 0.0425844 12.0007 0L10.3283 1.6743V1.6691L4.53758 7.4928" fill="#F9F8F6"/>
<path d="M3.70401 8.21773C2.29001 6.86539 2.5338 4.77252 3.7403 3.56564C4.63246 2.67239 6.09417 2.30783 7.37017 2.84377L8.7406 2.2102C8.49371 2.03155 8.17727 1.8394 7.81419 1.70438C6.17303 1.02822 4.20817 1.36474 2.87407 2.6994C1.5908 3.9842 1.18725 5.9597 1.88024 7.64543C2.3979 8.90531 1.5493 9.79645 0.694483 10.6959C0.391559 11.0148 0.0875999 11.3337 -0.157227 11.6712L3.70295 8.21875" fill="#F9F8F6"/>
</g>
<defs>
<clipPath id="clip0_90_97">
<rect width="12" height="12" fill="white"/>
</clipPath>
</defs>
</svg>
