<svg width="12" height="12" viewBox="0 0 12 12" fill="none" xmlns="http://www.w3.org/2000/svg">
<path d="M1.125 5.76764C1.125 4.06414 2.0485 2.49064 3.547 1.63864C4.28549 1.22004 5.11987 1 5.96875 1C6.81763 1 7.65201 1.22004 8.3905 1.63864C9.889 2.49064 10.8125 4.06414 10.8125 5.76764C10.8125 8.40064 8.644 10.5351 5.969 10.5351C3.294 10.5351 1.125 8.40014 1.125 5.76764Z" fill="#FF9D0B"/>
<path d="M5.969 10.0427C8.3675 10.0427 10.3125 8.12819 10.3125 5.76719C10.3125 3.40619 8.3675 1.49219 5.969 1.49219C3.57 1.49219 1.625 3.40619 1.625 5.76719C1.625 8.12819 3.57 10.0422 5.969 10.0422V10.0427Z" fill="#FFD21E"/>
<path d="M5.93698 7.5567C7.16548 7.5567 7.56198 6.4787 7.56198 5.9252C7.56198 5.6372 7.36548 5.7282 7.05048 5.8807C6.75948 6.0222 6.36798 6.2182 5.93848 6.2182C5.03948 6.2182 4.31348 5.3717 4.31348 5.9252C4.31348 6.4787 4.70848 7.5567 5.93848 7.5567H5.93698Z" fill="#FF323D"/>
<path d="M7.37989 4.60531C7.53989 4.65931 7.60239 4.98181 7.76339 4.89781C7.98689 4.78131 8.11689 4.54381 8.09289 4.29581C8.08044 4.1739 8.032 4.05845 7.95374 3.96416C7.87547 3.86987 7.77092 3.801 7.65339 3.76631C7.53542 3.73061 7.40958 3.73024 7.2914 3.76525C7.17322 3.80026 7.06788 3.86911 6.98839 3.96331C6.82739 4.15531 6.79989 4.42331 6.91839 4.64331C6.99489 4.78481 7.23739 4.55481 7.38089 4.60381L7.37989 4.60531ZM4.43639 4.60531C4.27639 4.65931 4.21239 4.98181 4.05239 4.89781C3.94378 4.84171 3.85442 4.75441 3.79579 4.64714C3.73717 4.53987 3.71195 4.41752 3.72339 4.29581C3.74739 4.04831 3.92089 3.83931 4.16239 3.76631C4.28036 3.73061 4.40621 3.73024 4.52439 3.76525C4.64256 3.80026 4.7479 3.86911 4.82739 3.96331C4.98839 4.15531 5.01589 4.42331 4.89739 4.64331C4.82139 4.78481 4.57739 4.55481 4.43489 4.60381L4.43639 4.60531ZM4.99639 7.27531C5.06302 7.14264 5.15622 7.0251 5.27018 6.92997C5.38415 6.83484 5.51646 6.76415 5.65889 6.72231C5.69389 6.71231 5.73089 6.75231 5.76839 6.80781L5.86439 6.96081C5.89889 7.01081 5.93389 7.04831 5.96889 7.04831C6.00589 7.04831 6.04389 7.01131 6.08039 6.96231L6.18289 6.81131C6.22289 6.75631 6.26139 6.71731 6.29989 6.72881C6.56839 6.81281 6.79289 6.99681 6.92489 7.24181C7.39089 6.87981 7.56239 6.28931 7.56239 5.92531C7.56239 5.67131 7.40939 5.71231 7.15739 5.83031L6.84939 5.97831C6.58939 6.09831 6.27539 6.21831 5.93739 6.21831C5.59939 6.21831 5.28639 6.09831 5.02589 5.97831L4.73139 5.83681C4.47139 5.71281 4.31239 5.66581 4.31239 5.92531C4.31239 6.27681 4.47239 6.84081 4.90589 7.20531L4.99589 7.27531H4.99639Z" fill="#3A3B45"/>
<path d="M8.90584 5.18283C8.95881 5.18329 9.01134 5.17331 9.06045 5.15345C9.10955 5.13359 9.15426 5.10424 9.19201 5.06709C9.22976 5.02994 9.25983 4.98572 9.28047 4.93694C9.30112 4.88816 9.31195 4.83579 9.31234 4.78283C9.31234 4.56233 9.13034 4.38283 8.90584 4.38283C8.85292 4.38243 8.80044 4.39247 8.75139 4.41235C8.70234 4.43224 8.6577 4.4616 8.62 4.49874C8.5823 4.53588 8.55228 4.58009 8.53166 4.62883C8.51105 4.67758 8.50023 4.7299 8.49984 4.78283C8.49984 5.00383 8.68184 5.18283 8.90584 5.18283ZM3.09384 5.18283C3.14676 5.18322 3.19925 5.17319 3.24829 5.1533C3.29734 5.13341 3.34199 5.10406 3.37969 5.06692C3.41739 5.02977 3.4474 4.98557 3.46802 4.93682C3.48864 4.88808 3.49945 4.83575 3.49984 4.78283C3.49984 4.56233 3.31784 4.38283 3.09384 4.38283C3.04088 4.38237 2.98834 4.39235 2.93924 4.41221C2.89013 4.43207 2.84543 4.46141 2.80767 4.49856C2.76992 4.53571 2.73986 4.57994 2.71921 4.62872C2.69856 4.67749 2.68773 4.72986 2.68734 4.78283C2.68734 5.00383 2.86934 5.18283 3.09384 5.18283ZM2.25734 6.53633C2.05484 6.53633 1.87484 6.61733 1.74884 6.76633C1.64136 6.89651 1.5825 7.06001 1.58234 7.22883C1.50357 7.20549 1.42198 7.19304 1.33984 7.19183C1.14634 7.19183 0.971342 7.26483 0.847342 7.39633C0.737171 7.50821 0.667504 7.65367 0.649389 7.80964C0.631274 7.96562 0.665747 8.12317 0.747342 8.25733C0.637175 8.34569 0.558731 8.46748 0.523842 8.60433C0.493842 8.71533 0.463842 8.94933 0.623842 9.18733C0.563807 9.27773 0.528002 9.38204 0.51986 9.49025C0.511718 9.59847 0.531511 9.70696 0.577342 9.80533C0.696342 10.0718 0.982342 10.2843 1.52234 10.5078L1.64234 10.5558C2.02634 10.7058 2.37884 10.8018 2.38134 10.8028C2.82634 10.9243 3.28534 10.9903 3.74734 10.9998C4.47984 10.9998 5.00384 10.7783 5.30484 10.3428C5.76984 9.67183 5.72584 9.05533 5.16784 8.46133L5.09234 8.38433C4.74634 8.04233 4.51484 7.53933 4.46734 7.42833C4.36984 7.10083 4.11234 6.73683 3.68634 6.73683C3.45634 6.74033 3.24184 6.85333 3.11134 7.03933C2.98634 6.88433 2.86384 6.76283 2.75384 6.69233C2.60644 6.59439 2.43427 6.54029 2.25734 6.53633ZM9.74234 6.53633C9.94484 6.53633 10.1258 6.61733 10.2508 6.76633C10.3588 6.89733 10.4173 7.06033 10.4173 7.22883C10.4963 7.20533 10.5783 7.19333 10.6608 7.19183C10.8548 7.19183 11.0298 7.26483 11.1533 7.39633C11.2635 7.50821 11.3332 7.65367 11.3513 7.80964C11.3694 7.96562 11.3349 8.12317 11.2533 8.25733C11.3633 8.34633 11.4418 8.46833 11.4758 8.60433C11.5058 8.71533 11.5358 8.94933 11.3758 9.18733C11.4978 9.37233 11.5153 9.60533 11.4223 9.80533C11.3033 10.0718 11.0173 10.2843 10.4778 10.5078L10.3583 10.5558C9.97334 10.7058 9.62084 10.8018 9.61834 10.8028C9.17334 10.9243 8.71434 10.9903 8.25234 10.9998C7.51984 10.9998 6.99584 10.7783 6.69484 10.3428C6.22984 9.67183 6.27384 9.05533 6.83184 8.46133L6.90734 8.38433C7.25484 8.04233 7.48584 7.53933 7.53334 7.42833C7.63084 7.10083 7.88734 6.73683 8.31334 6.73683C8.54334 6.74033 8.75784 6.85333 8.88834 7.03933C9.01334 6.88433 9.13584 6.76283 9.24734 6.69233C9.36934 6.61133 9.50884 6.55983 9.65434 6.54233L9.74234 6.53633Z" fill="#FF9D0B"/>
<path d="M4.89209 10.0661C5.23609 9.56911 5.21109 9.19611 4.73959 8.73261C4.26709 8.26861 3.99209 7.58861 3.99209 7.58861C3.99209 7.58861 3.88959 7.19461 3.65609 7.23161C3.42209 7.26861 3.25109 7.85661 3.74109 8.21711C4.22959 8.57761 3.64359 8.82211 3.45459 8.48411C3.26709 8.14561 2.75209 7.27611 2.48459 7.10861C2.21859 6.94261 2.03109 7.03461 2.09359 7.37911C2.15609 7.72261 3.27209 8.55411 3.16359 8.73261C3.05459 8.91361 2.67209 8.52261 2.67209 8.52261C2.67209 8.52261 1.47609 7.45011 1.21459 7.73011C0.954586 8.00911 1.41359 8.24311 2.06459 8.63161C2.71859 9.02061 2.76959 9.12411 2.67709 9.27161C2.58359 9.41911 1.14209 8.22161 1.00709 8.73011C0.872086 9.23561 2.47859 9.38211 2.37959 9.73311C2.27959 10.0831 1.24709 9.07111 1.03709 9.46461C0.824585 9.85961 2.49359 10.3236 2.50709 10.3271C3.04459 10.4651 4.41359 10.7566 4.89209 10.0661ZM7.10809 10.0661C6.76459 9.56911 6.78809 9.19611 7.26059 8.73261C7.73209 8.26861 8.00709 7.58861 8.00709 7.58861C8.00709 7.58861 8.10959 7.19461 8.34459 7.23161C8.57709 7.26861 8.74809 7.85661 8.25959 8.21711C7.76959 8.57761 8.35709 8.82211 8.54459 8.48411C8.73309 8.14561 9.24809 7.27611 9.51459 7.10861C9.78059 6.94261 9.96959 7.03461 9.90559 7.37911C9.84309 7.72261 8.72809 8.55411 8.83709 8.73261C8.94459 8.91361 9.32709 8.52261 9.32709 8.52261C9.32709 8.52261 10.5246 7.45011 10.7846 7.73011C11.0446 8.00911 10.5871 8.24311 9.93459 8.63161C9.28059 9.02061 9.23059 9.12411 9.32209 9.27161C9.41559 9.41911 10.8571 8.22161 10.9921 8.73011C11.1271 9.23561 9.52209 9.38211 9.62059 9.73311C9.72059 10.0831 10.7521 9.07111 10.9631 9.46461C11.1746 9.85961 9.50708 10.3236 9.49308 10.3271C8.95458 10.4651 7.58559 10.7566 7.10809 10.0661Z" fill="#FFD21E"/>
</svg>
