<svg width="12" height="12" viewBox="0 0 12 12" fill="none" xmlns="http://www.w3.org/2000/svg">
<g clip-path="url(#clip0_90_76)">
<path d="M3.4484 2H3.4364L3.4209 3.3075H3.4319C4.2894 3.3075 4.9549 3.986 6.4019 6.4305L6.4894 6.579L6.4954 6.589L7.3054 5.37L7.2994 5.3605C7.12239 5.07071 6.93935 4.78465 6.7504 4.5025C6.56437 4.22406 6.36841 3.95239 6.1629 3.688C5.2064 2.466 4.4064 2 3.4484 2Z" fill="url(#paint0_linear_90_76)"/>
<path d="M3.43638 2C2.47488 2.005 1.62338 2.629 1.00988 3.585C1.00821 3.58783 1.00654 3.59066 1.00488 3.5935L2.13188 4.209L2.13738 4.2005C2.49638 3.659 2.94238 3.3135 3.42138 3.308H3.43188L3.44788 2H3.43638Z" fill="url(#paint1_linear_90_76)"/>
<path d="M1.00977 3.58496L1.00427 3.59346C0.600266 4.22346 0.299266 4.99746 0.137266 5.83196L0.134766 5.84296L1.40177 6.14296L1.40377 6.13196C1.53877 5.39846 1.79677 4.71796 2.13177 4.20946L2.13727 4.20096L1.00977 3.58496Z" fill="url(#paint2_linear_90_76)"/>
<path d="M1.4035 6.13203L0.137 5.83203L0.1345 5.84303C0.046 6.30203 0.001 6.76853 0 7.23603V7.24753L1.299 7.36403V7.35253C1.29427 6.94342 1.32944 6.53482 1.404 6.13253L1.4035 6.13203Z" fill="url(#paint3_linear_90_76)"/>
<path d="M1.33856 7.76887C1.31527 7.63455 1.30206 7.49867 1.29906 7.36237V7.35137L6.15526e-05 7.23438V7.24637C-0.00139624 7.52338 0.0230434 7.79992 0.0730615 8.07237L1.34056 7.77987C1.33988 7.77621 1.33922 7.77254 1.33856 7.76887Z" fill="url(#paint4_linear_90_76)"/>
<path d="M1.63529 8.44501C1.49329 8.29001 1.39329 8.06701 1.34079 7.78101L1.33879 7.77051L0.0712891 8.06301L0.0732891 8.07351C0.169289 8.57851 0.357289 8.99851 0.626289 9.31701L0.633289 9.32551L1.64229 8.45301C1.63978 8.45035 1.63778 8.44769 1.63529 8.44501Z" fill="url(#paint5_linear_90_76)"/>
<path d="M5.38998 4.82715C4.62598 6.00215 4.16298 6.73965 4.16298 6.73965C3.14548 8.33965 2.79348 8.69815 2.22748 8.69815C2.11617 8.70105 2.00555 8.67985 1.90319 8.63601C1.80084 8.59217 1.70917 8.52672 1.63448 8.44415L0.625977 9.31615L0.632977 9.32465C1.00498 9.75915 1.52898 10.0001 2.17798 10.0001C3.15948 10.0001 3.86498 9.53615 5.11998 7.33515L6.00298 5.77015C5.80708 5.4503 5.60301 5.13585 5.38998 4.82715Z" fill="#0082FB"/>
<path d="M6.75109 2.97316L6.74309 2.98116C6.54309 3.19616 6.35009 3.43516 6.16309 3.68916C6.35209 3.93066 6.54709 4.20116 6.75059 4.50416C6.99059 4.13266 7.21459 3.83166 7.43409 3.60066L7.44209 3.59266L6.75109 2.97316Z" fill="url(#paint6_linear_90_76)"/>
<path d="M10.4592 2.8565C9.92666 2.3165 9.29166 2 8.61266 2C7.89666 2 7.29416 2.3935 6.75116 2.972L6.74316 2.98L7.43416 3.6L7.44216 3.5915C7.79966 3.218 8.14616 3.0315 8.53016 3.0315C8.94316 3.0315 9.33016 3.2265 9.66516 3.569L9.67266 3.577L10.4672 2.8645L10.4592 2.8565Z" fill="#0082FB"/>
<path d="M11.999 7.06245C11.969 5.32895 11.364 3.77945 10.467 2.86445L10.459 2.85645L9.66504 3.56845L9.67254 3.57645C10.3475 4.27245 10.811 5.56644 10.853 7.06194V7.07345H11.999V7.06245Z" fill="url(#paint7_linear_90_76)"/>
<path d="M11.9995 7.07498V7.06348H10.8535V7.07448C10.8555 7.14448 10.8565 7.21548 10.8565 7.28648C10.8565 7.69398 10.796 8.02348 10.6725 8.26148L10.667 8.27248L11.521 9.16348L11.5275 9.15348C11.8375 8.67348 12.0005 8.00698 12.0005 7.19848C12.0005 7.15698 12.0005 7.11598 11.9995 7.07498Z" fill="url(#paint8_linear_90_76)"/>
<path d="M10.672 8.25977L10.6665 8.26977C10.5595 8.47077 10.407 8.60477 10.208 8.66327L10.597 9.89427C10.672 9.86893 10.7452 9.83853 10.816 9.80327C11.0929 9.66329 11.3283 9.45335 11.499 9.19427L11.521 9.16177L11.527 9.15177L10.672 8.25977Z" fill="url(#paint9_linear_90_76)"/>
<path d="M9.96015 8.69695C9.82915 8.69695 9.71415 8.67745 9.60115 8.62695L9.20215 9.88795C9.42665 9.96445 9.66565 9.99895 9.93215 9.99895C10.1781 9.99895 10.4036 9.96245 10.6081 9.89145L10.2181 8.66045C10.1346 8.68545 10.0481 8.69795 9.96015 8.69695Z" fill="url(#paint10_linear_90_76)"/>
<path d="M9.16133 8.26729L9.15433 8.25879L8.23633 9.21579L8.24433 9.22429C8.56283 9.56529 8.86733 9.77679 9.21283 9.89279L9.61133 8.63279C9.46583 8.57029 9.32483 8.45629 9.16133 8.26729Z" fill="url(#paint11_linear_90_76)"/>
<path d="M9.15426 8.25737C8.87926 7.93637 8.53826 7.40137 8.00276 6.53737L7.30476 5.36938L7.29926 5.35938L6.48926 6.57837L6.49526 6.58838L6.98976 7.42238C7.46926 8.22738 7.85976 8.80938 8.23626 9.21488L8.24426 9.22287L9.16126 8.26587C9.15891 8.26305 9.15658 8.26022 9.15426 8.25737Z" fill="url(#paint12_linear_90_76)"/>
</g>
<defs>
<linearGradient id="paint0_linear_90_76" x1="298.243" y1="411.334" x2="57.3608" y2="94.6766" gradientUnits="userSpaceOnUse">
<stop offset="0.0006" stop-color="#0867DF"/>
<stop offset="0.4539" stop-color="#0668E1"/>
<stop offset="0.8591" stop-color="#0064E0"/>
</linearGradient>
<linearGradient id="paint1_linear_90_76" x1="53.9447" y1="169.606" x2="225.819" y2="38.7918" gradientUnits="userSpaceOnUse">
<stop offset="0.1323" stop-color="#0064DF"/>
<stop offset="0.9988" stop-color="#0064E0"/>
</linearGradient>
<linearGradient id="paint2_linear_90_76" x1="76.7564" y1="231.572" x2="146.827" y2="54.6502" gradientUnits="userSpaceOnUse">
<stop offset="0.0147" stop-color="#0072EC"/>
<stop offset="0.6881" stop-color="#0064DF"/>
</linearGradient>
<linearGradient id="paint3_linear_90_76" x1="66.0329" y1="144.003" x2="74.5809" y2="30.0556" gradientUnits="userSpaceOnUse">
<stop offset="0.0731" stop-color="#007CF6"/>
<stop offset="0.9943" stop-color="#0072EC"/>
</linearGradient>
<linearGradient id="paint4_linear_90_76" x1="69.917" y1="56.0906" x2="67.4605" y2="37.7532" gradientUnits="userSpaceOnUse">
<stop offset="0.0731" stop-color="#007FF9"/>
<stop offset="1" stop-color="#007CF6"/>
</linearGradient>
<linearGradient id="paint5_linear_90_76" x1="59.2807" y1="27.2111" x2="96.779" y2="107.003" gradientUnits="userSpaceOnUse">
<stop offset="0.0731" stop-color="#007FF9"/>
<stop offset="1" stop-color="#0082FB"/>
</linearGradient>
<linearGradient id="paint6_linear_90_76" x1="50.6825" y1="108.43" x2="95.9035" y2="45.7031" gradientUnits="userSpaceOnUse">
<stop offset="0.2799" stop-color="#007FF8"/>
<stop offset="0.9141" stop-color="#0082FB"/>
</linearGradient>
<linearGradient id="paint7_linear_90_76" x1="111.806" y1="29.1494" x2="212.251" y2="399.825" gradientUnits="userSpaceOnUse">
<stop stop-color="#0082FB"/>
<stop offset="0.9995" stop-color="#0081FA"/>
</linearGradient>
<linearGradient id="paint8_linear_90_76" x1="90.7503" y1="16.8516" x2="31.8209" y2="136.329" gradientUnits="userSpaceOnUse">
<stop offset="0.0619" stop-color="#0081FA"/>
<stop offset="1" stop-color="#0080F9"/>
</linearGradient>
<linearGradient id="paint9_linear_90_76" x1="50.15" y1="105.218" x2="97.6983" y2="72.732" gradientUnits="userSpaceOnUse">
<stop stop-color="#027AF3"/>
<stop offset="1" stop-color="#0080F9"/>
</linearGradient>
<linearGradient id="paint10_linear_90_76" x1="37.9309" y1="77.2283" x2="124.652" y2="77.2283" gradientUnits="userSpaceOnUse">
<stop stop-color="#0377EF"/>
<stop offset="0.9994" stop-color="#0279F1"/>
</linearGradient>
<linearGradient id="paint11_linear_90_76" x1="63.653" y1="65.9357" x2="112.479" y2="94.7594" gradientUnits="userSpaceOnUse">
<stop offset="0.0019" stop-color="#0471E9"/>
<stop offset="1" stop-color="#0377EF"/>
</linearGradient>
<linearGradient id="paint12_linear_90_76" x1="92.6719" y1="81.5437" x2="252.159" y2="282.681" gradientUnits="userSpaceOnUse">
<stop offset="0.2765" stop-color="#0867DF"/>
<stop offset="1" stop-color="#0471E9"/>
</linearGradient>
<clipPath id="clip0_90_76">
<rect width="12" height="12" fill="white"/>
</clipPath>
</defs>
</svg>
