<svg width="12" height="12" viewBox="0 0 12 12" fill="none" xmlns="http://www.w3.org/2000/svg">
<path d="M1.71387 1.7002H3.42837V3.4142H1.71387V1.7002ZM8.57087 1.7002H10.2859V3.4142H8.57087V1.7002Z" fill="#FFD700"/>
<path d="M1.71387 3.41406H5.14237V5.12856H1.71437L1.71387 3.41406ZM6.85687 3.41406H10.2854V5.12856H6.85687V3.41406Z" fill="#FFAF00"/>
<path d="M1.71387 5.12891H10.2859V6.84291H1.71387V5.12891Z" fill="#FF8205"/>
<path d="M1.71387 6.84277H3.42837V8.55677H1.71387V6.84277ZM5.14287 6.84277H6.85737V8.55677H5.14287V6.84277ZM8.57087 6.84277H10.2859V8.55677H8.57087V6.84277Z" fill="#FA500F"/>
<path d="M0 8.55664H5.143V10.2711H0V8.55664ZM6.857 8.55664H12V10.2711H6.857V8.55664Z" fill="#E10500"/>
</svg>
