<svg width="24" height="24" viewBox="0 0 24 24" fill="none" xmlns="http://www.w3.org/2000/svg">
  <path d="M22.2819 11.4205C22.4913 10.8453 22.5678 10.2335 22.5067 9.63061C22.4456 9.02769 22.2484 8.4469 21.9287 7.93349C21.609 7.42008 21.1754 6.9897 20.6611 6.67359C20.1468 6.35748 19.5654 6.16374 18.9625 6.10725V3.93713C18.9627 3.16354 18.7209 2.41068 18.2719 1.79276C17.8229 1.17484 17.1912 0.722652 16.4647 0.502649C15.7383 0.282645 14.9572 0.306939 14.2466 0.571555C13.536 0.83617 12.9347 1.32592 12.5332 1.96826C12.0125 1.91367 11.4866 1.97055 10.9911 2.13493C10.4957 2.29931 10.0435 2.56713 9.666 2.91941C9.28849 3.27169 8.99425 3.7004 8.80301 4.17783C8.61177 4.65526 8.52851 5.16873 8.5585 5.68154V9.22146C7.45049 9.19749 6.35711 9.49026 5.41006 10.0655C4.46302 10.6407 3.70222 11.473 3.22171 12.4704C2.7412 13.4678 2.56155 14.5873 2.70419 15.6915C2.84683 16.7956 3.30544 17.8355 4.01938 18.6923C3.80997 19.2674 3.73342 19.8792 3.79456 20.4821C3.85569 21.0851 4.05288 21.6659 4.37259 22.1793C4.6923 22.6927 5.12588 23.1231 5.64019 23.4392C6.1545 23.7553 6.73596 23.949 7.33885 24.0055C7.33847 24.0178 7.33847 24.0301 7.33885 24.0425C7.33885 24.7768 7.63004 25.481 8.15073 26.0017C8.67141 26.5224 9.37569 26.8136 10.1099 26.8136C10.8441 26.8136 11.5484 26.5224 12.0691 26.0017C12.5897 25.481 12.8809 24.7768 12.8809 24.0425V20.5035C13.9889 20.5278 15.0824 20.2354 16.0295 19.6605C16.9766 19.0857 17.7376 18.2538 18.2184 17.2566C18.6992 16.2595 18.8793 15.1401 18.7372 14.0358C18.595 12.9316 18.1369 11.8915 17.4234 11.0343C17.6328 10.4591 17.7094 9.84729 17.6482 9.2444C17.5871 8.64151 17.3899 8.06074 17.0702 7.54734C16.7505 7.03394 16.3169 6.60356 15.8026 6.28745C15.2883 5.97134 14.7069 5.7776 14.1041 5.72111V3.93713C14.1041 3.64845 14.1799 3.36472 14.3236 3.11517C14.4674 2.86561 14.6739 2.66014 14.9227 2.52034C15.1714 2.38054 15.4539 2.31199 15.7424 2.322C16.031 2.33201 16.3084 2.42014 16.5468 2.57644C16.7853 2.73274 16.9776 2.95111 17.1044 3.20952C17.2312 3.46793 17.2878 3.75726 17.268 4.04566C17.2482 4.33406 17.1527 4.61144 16.9911 4.84761C16.8295 5.08379 16.6075 5.27057 16.3475 5.38711L15.8475 5.61177C15.6922 5.68251 15.5619 5.80139 15.4736 5.95323C15.3853 6.10507 15.3432 6.28218 15.3529 6.46038C15.3626 6.63858 15.4236 6.81001 15.5285 6.95073C15.6334 7.09146 15.7769 7.19501 15.9418 7.24889C16.1067 7.30277 16.2839 7.30408 16.4495 7.25268C16.6152 7.20127 16.76 7.09991 16.8668 6.96075L17.3666 6.73608C17.8654 6.47845 18.276 6.08263 18.5426 5.60037C18.8092 5.11811 18.9199 4.57072 18.8613 4.02723C18.8028 3.48374 18.5773 2.97325 18.2157 2.56325C17.8541 2.15325 17.3727 1.86351 16.8405 1.73455C16.3084 1.6056 15.7524 1.64261 15.2437 1.84097C14.735 2.03933 14.3005 2.39004 13.9968 2.84723C13.6931 3.30442 13.5348 3.84566 13.5415 4.39847V5.2628C13.1026 5.36428 12.6885 5.5474 12.3225 5.80272C11.9565 6.05803 11.6462 6.38009 11.4111 6.75011C11.1178 6.68496 10.8159 6.65175 10.5138 6.65127C10.1993 6.65127 9.88476 6.68002 9.57711 6.73608V5.68154C9.54763 5.28727 9.61296 4.89127 9.76736 4.52631C9.92177 4.16135 10.1608 3.84005 10.4642 3.59057C10.7677 3.34109 11.1272 3.17233 11.5087 3.09958C11.8902 3.02684 12.2822 3.05222 12.6511 3.17338C12.7879 3.21698 12.9325 3.22632 13.0739 3.20058C13.2153 3.17484 13.3493 3.11486 13.4641 3.02573C13.579 2.93659 13.6713 2.8211 13.7332 2.68997C13.7951 2.55883 13.8248 2.41606 13.8196 2.27264C13.8144 2.12922 13.7745 1.98909 13.703 1.86291C13.6315 1.73673 13.5309 1.62842 13.4099 1.54855C13.289 1.46869 13.1509 1.41933 13.0079 1.40448C12.865 1.38963 12.7207 1.41 12.5873 1.46358C11.9552 1.6743 11.3794 2.02682 10.9064 2.48855C10.4334 2.95028 10.078 3.50972 9.87389 4.12764C9.66981 4.74557 9.62357 5.40339 9.73973 6.04511C9.85589 6.68683 10.1306 7.29174 10.5396 7.80655C10.4283 8.02304 10.3357 8.24938 10.2632 8.48211H6.78445C6.42226 8.48211 6.07461 8.61491 5.80948 8.85262C5.54435 9.09033 5.38024 9.41535 5.35324 9.77648C5.32625 10.1376 5.43824 10.4923 5.66596 10.7679C5.89368 11.0435 6.21906 11.2206 6.57881 11.2606C6.49452 11.5312 6.45187 11.8139 6.45238 12.0981C6.45238 12.456 6.53254 12.8091 6.68819 13.1347C6.84383 13.4602 7.07068 13.7509 7.35256 13.9877C7.63443 14.2246 7.96522 14.4026 8.32233 14.5106C8.67945 14.6186 9.05529 14.6541 9.4275 14.6153C9.39939 14.7857 9.38094 14.9581 9.37221 15.1312V15.1379C9.36602 15.4249 9.40483 15.711 9.48728 15.9872C9.13108 16.0733 8.79495 16.2208 8.4968 16.4226C8.19866 16.6244 7.94391 16.8773 7.74657 17.1672C7.54922 17.4571 7.41303 17.7787 7.34574 18.1157C7.27845 18.4528 7.28134 18.7991 7.35425 19.1351C7.09341 19.3035 6.87472 19.5298 6.71368 19.7976C6.55264 20.0653 6.45323 20.3675 6.42245 20.6811C6.39168 20.9947 6.43036 21.3119 6.53563 21.6091C6.6409 21.9063 6.81007 22.1757 7.03096 22.399C7.25184 22.6222 7.51949 22.7942 7.81561 22.9026C8.11174 23.011 8.42853 23.0531 8.74221 23.0258C9.05589 22.9984 9.35858 22.9023 9.62745 22.7442C9.89632 22.586 10.1242 22.3699 10.2968 22.1111C10.637 22.1963 10.988 22.2176 11.3363 22.1739C11.6847 22.1303 12.0235 22.0224 12.3359 21.8552V24.0425C12.3359 24.4267 12.1831 24.7952 11.9105 25.0679C11.6379 25.3405 11.2694 25.4933 10.8851 25.4933C10.5009 25.4933 10.1323 25.3405 9.85973 25.0679C9.58712 24.7952 9.43429 24.4267 9.43429 24.0425H7.33885C7.33885 24.7768 7.63004 25.481 8.15073 26.0017C8.67141 26.5224 9.37569 26.8136 10.1099 26.8136C10.8441 26.8136 11.5484 26.5224 12.0691 26.0017C12.5897 25.481 12.8809 24.7768 12.8809 24.0425V20.5035C13.9889 20.5278 15.0824 20.2354 16.0295 19.6605C16.9766 19.0857 17.7376 18.2538 18.2184 17.2566C18.6992 16.2595 18.8793 15.1401 18.7372 14.0358C18.595 12.9316 18.1369 11.8915 17.4234 11.0343C17.6328 10.4591 17.7094 9.84729 17.6482 9.2444C17.5871 8.64151 17.3899 8.06074 17.0702 7.54734C16.7505 7.03394 16.3169 6.60356 15.8026 6.28745C15.2883 5.97134 14.7069 5.7776 14.1041 5.72111V3.93713C14.1041 3.64845 14.1799 3.36472 14.3236 3.11517C14.4674 2.86561 14.6739 2.66014 14.9227 2.52034C15.1714 2.38054 15.4539 2.31199 15.7424 2.322C16.031 2.33201 16.3084 2.42014 16.5468 2.57644C16.7853 2.73274 16.9776 2.95111 17.1044 3.20952C17.2312 3.46793 17.2878 3.75726 17.268 4.04566C17.2482 4.33406 17.1527 4.61144 16.9911 4.84761C16.8295 5.08379 16.6075 5.27057 16.3475 5.38711L15.8475 5.61177C15.6922 5.68251 15.5619 5.80139 15.4736 5.95323C15.3853 6.10507 15.3432 6.28218 15.3529 6.46038C15.3626 6.63858 15.4236 6.81001 15.5285 6.95073C15.6334 7.09146 15.7769 7.19501 15.9418 7.24889C16.1067 7.30277 16.2839 7.30408 16.4495 7.25268C16.6152 7.20127 16.76 7.09991 16.8668 6.96075L17.3666 6.73608C17.8654 6.47845 18.276 6.08263 18.5426 5.60037C18.8092 5.11811 18.9199 4.57072 18.8613 4.02723C18.8028 3.48374 18.5773 2.97325 18.2157 2.56325C17.8541 2.15325 17.3727 1.86351 16.8405 1.73455C16.3084 1.6056 15.7524 1.64261 15.2437 1.84097C14.735 2.03933 14.3005 2.39004 13.9968 2.84723C13.6931 3.30442 13.5348 3.84566 13.5415 4.39847V5.2628C13.1026 5.36428 12.6885 5.5474 12.3225 5.80272C11.9565 6.05803 11.6462 6.38009 11.4111 6.75011C11.1178 6.68496 10.8159 6.65175 10.5138 6.65127C10.1993 6.65127 9.88476 6.68002 9.57711 6.73608V5.68154C9.54763 5.28727 9.61296 4.89127 9.76736 4.52631C9.92177 4.16135 10.1608 3.84005 10.4642 3.59057C10.7677 3.34109 11.1272 3.17233 11.5087 3.09958C11.8902 3.02684 12.2822 3.05222 12.6511 3.17338C12.7879 3.21698 12.9325 3.22632 13.0739 3.20058C13.2153 3.17484 13.3493 3.11486 13.4641 3.02573C13.579 2.93659 13.6713 2.8211 13.7332 2.68997C13.7951 2.55883 13.8248 2.41606 13.8196 2.27264C13.8144 2.12922 13.7745 1.98909 13.703 1.86291C13.6315 1.73673 13.5309 1.62842 13.4099 1.54855C13.289 1.46869 13.1509 1.41933 13.0079 1.40448C12.865 1.38963 12.7207 1.41 12.5873 1.46358C11.9552 1.6743 11.3794 2.02682 10.9064 2.48855C10.4334 2.95028 10.078 3.50972 9.87389 4.12764C9.66981 4.74557 9.62357 5.40339 9.73973 6.04511C9.85589 6.68683 10.1306 7.29174 10.5396 7.80655C10.4283 8.02304 10.3357 8.24938 10.2632 8.48211H6.78445C6.42226 8.48211 6.07461 8.61491 5.80948 8.85262C5.54435 9.09033 5.38024 9.41535 5.35324 9.77648C5.32625 10.1376 5.43824 10.4923 5.66596 10.7679C5.89368 11.0435 6.21906 11.2206 6.57881 11.2606C6.49452 11.5312 6.45187 11.8139 6.45238 12.0981C6.45238 12.456 6.53254 12.8091 6.68819 13.1347C6.84383 13.4602 7.07068 13.7509 7.35256 13.9877C7.63443 14.2246 7.96522 14.4026 8.32233 14.5106C8.67945 14.6186 9.05529 14.6541 9.4275 14.6153C9.39939 14.7857 9.38094 14.9581 9.37221 15.1312V15.1379C9.36602 15.4249 9.40483 15.711 9.48728 15.9872C9.13108 16.0733 8.79495 16.2208 8.4968 16.4226C8.19866 16.6244 7.94391 16.8773 7.74657 17.1672C7.54922 17.4571 7.41303 17.7787 7.34574 18.1157C7.27845 18.4528 7.28134 18.7991 7.35425 19.1351C7.09341 19.3035 6.87472 19.5298 6.71368 19.7976C6.55264 20.0653 6.45323 20.3675 6.42245 20.6811C6.39168 20.9947 6.43036 21.3119 6.53563 21.6091C6.6409 21.9063 6.81007 22.1757 7.03096 22.399C7.25184 22.6222 7.51949 22.7942 7.81561 22.9026C8.11174 23.011 8.42853 23.0531 8.74221 23.0258C9.05589 22.9984 9.35858 22.9023 9.62745 22.7442C9.89632 22.586 10.1242 22.3699 10.2968 22.1111C10.637 22.1963 10.988 22.2176 11.3363 22.1739C11.6847 22.1303 12.0235 22.0224 12.3359 21.8552V24.0425" fill="#212121"/>
</svg> 