<svg width="12" height="12" viewBox="0 0 12 12" fill="none" xmlns="http://www.w3.org/2000/svg">
<path d="M3.6115 10.5C5.7375 10.5 7.1205 9.39 7.1205 7.72C7.1205 6.425 6.2795 5.602 4.7755 5.261L3.8105 4.9755C2.9635 4.788 2.469 4.563 2.5855 3.988C2.6825 3.5095 2.972 3.2395 3.6465 3.2395C5.789 3.2395 6.583 3.988 6.583 3.988V2.188C6.583 2.188 5.81 1.5 3.6465 1.5C1.6065 1.5 0.5 2.535 0.5 4.1365C0.5 5.4315 1.267 6.185 2.8225 6.5425L2.9895 6.584C3.226 6.656 3.5455 6.7515 3.9475 6.87C4.7425 7.0575 4.947 7.2565 4.947 7.853C4.947 8.398 4.372 8.708 3.612 8.708C1.4205 8.708 0.5 7.6155 0.5 7.6155V9.61C0.5 9.61 1.076 10.5 3.6115 10.5Z" fill="url(#paint0_linear_90_29)"/>
<path d="M10.1866 10.3649C10.9391 10.3649 11.4996 9.82837 11.4996 9.10187C11.4996 8.35987 10.9551 7.83887 10.1866 7.83887C9.43415 7.83887 8.88965 8.35987 8.88965 9.10187C8.88965 9.84387 9.43415 10.3649 10.1866 10.3649Z" fill="#E80000"/>
<defs>
<linearGradient id="paint0_linear_90_29" x1="331.525" y1="1.5" x2="331.525" y2="901.5" gradientUnits="userSpaceOnUse">
<stop stop-color="#9D39FF"/>
<stop offset="1" stop-color="#A380FF"/>
</linearGradient>
</defs>
</svg>
