<svg width="9" height="9" fill="none" xmlns="http://www.w3.org/2000/svg"><path d="M5.17 3.184h.323v.323H5.17v-.323Zm-.323 0h.323v.323h-.323v-.323Zm0 .323h.323v.323h-.323v-.323Zm0 .323h.323v.323h-.323V3.83Zm.323 0h.323v.323H5.17V3.83Zm0-.323h.323v.323H5.17v-.323Zm-1.293.646h.324v.323h-.324v-.323Zm0 .323h.324V4.8h-.324v-.323Zm0 .323h.324v.323h-.324V4.8Zm-.323 0h.323v.323h-.323V4.8Zm0-.323h.323V4.8h-.323v-.323Zm0-.323h.323v.323h-.323v-.323Zm-.646 0h.323v.323h-.323v-.323Zm0 .323h.323V4.8h-.323v-.323Zm0 .323h.323v.323h-.323V4.8Zm0 .323h.323v.323h-.323v-.323Zm.323-.323h.323v.323h-.323V4.8Zm0-.323h.323V4.8h-.323v-.323Zm0-.323h.323v.323h-.323v-.323Zm-.646.646h.323v.323h-.323V4.8Zm-.323 0h.323v.323h-.323V4.8Zm-.323 0h.323v.323h-.323V4.8Zm-.323 0h.323v.323h-.323V4.8Zm0 .323h.323v.323h-.323v-.323Zm.323 0h.323v.323h-.323v-.323Zm.323 0h.323v.323h-.323v-.323Zm.323 0h.323v.323h-.323v-.323Zm.646 0h.323v.323h-.323v-.323Zm.323 0h.323v.323h-.323v-.323Zm.323 0h.324v.323h-.324v-.323ZM6.14.922h.323v.323H6.14V.922Zm.323 0h.324v.323h-.324V.922Zm0 .323h.324v.323h-.324v-.323Zm0 .323h.324v.323h-.324v-.323Zm0 .323h.324v.323h-.324v-.323Zm-.323 0h.323v.323H6.14v-.323Zm0 .323h.323v.323H6.14v-.323Zm0 .323h.323v.324H6.14v-.324Zm0 .324h.323v.323H6.14V2.86Zm0 .323h.323v.323H6.14v-.323Zm0 .323h.323v.323H6.14v-.323Zm0 .323h.323v.323H6.14V3.83Zm.323-.323h.324v.323h-.324v-.323Zm0-.323h.324v.323h-.324v-.323Zm0-.323h.324v.323h-.324V2.86Zm-.324 0h.324v.324h-.324v-.324Zm0-.323h.324v.323h-.324v-.323Zm0 1.616h.324v.323h-.324V3.83Zm.324-2.262h.323v.323h-.323v-.323Zm.323 0h.323v.323h-.323v-.323Zm0 .323h.323v.323h-.323v-.323Zm0 .323h.323v.323h-.323v-.323Zm0 .323h.323v.324h-.323v-.324Zm-.323 0h.323v.324h-.323v-.324Zm0 .324h.323v.323h-.323V2.86Zm0 .323h.323v.323h-.323v-.323Zm0 .323h.323v.323h-.323v-.323Zm0-1.293h.323v.323h-.323v-.323Zm0-.323h.323v.323h-.323v-.323Zm0 1.939h.323v.323h-.323V3.83Zm.323-.323h.323v.323h-.323v-.323Zm0-.323h.323v.323h-.323v-.323Zm0-.323h.323v.323h-.323V2.86Zm-.97 1.292h.323v.323H6.14v-.323Zm0 .323h.323V4.8H6.14v-.323Zm.323-.323h.324v.323h-.324v-.323Zm.97-2.585h.323v.323h-.323v-.323Zm.323 0h.323v.323h-.323v-.323Zm-.323.323h.323v.323h-.323v-.323Zm.646-.646h.323v.323h-.323v-.323Zm-1.292 0h.323v.323h-.323v-.323Zm.969 0h.323v.323h-.323v-.323Zm-2.585.323h.323v.323H5.17v-.323Zm0 .323h.323v.323H5.17v-.323Zm-.323 0h.323v.323h-.323v-.323Zm-.323.323h.323v.323h-.323v-.323Zm0 .323h.323v.324h-.323v-.324Zm-.323 0h.323v.324H4.2v-.324Zm1.292-1.292h.323v.323h-.323v-.323Zm.323-.323h.323v.323h-.323V.922Zm0 .323h.323v.323h-.323v-.323Zm.323 0h.323v.323H6.14v-.323Zm0 .323h.323v.323H6.14v-.323ZM8.078.922h.323v.323h-.323V.922ZM4.847 2.214h.323v.323h-.323v-.323Zm-.646.647h.323v.323H4.2V2.86Zm1.292-1.293h.323v.323h-.323v-.323ZM5.816 4.8h.323v.323h-.323V4.8Zm-.323 0h.323v.323h-.323V4.8Zm0 .323h.323v.323h-.323v-.323Zm.323 0h.323v.323h-.323v-.323ZM5.17 4.8h.323v.323H5.17V4.8Zm-.323 0h.323v.323h-.323V4.8Zm0 .323h.323v.323h-.323v-.323Zm.323 0h.323v.323H5.17v-.323Zm-2.262.323h.323v.324h-.323v-.324Zm0 .324h.323v.323h-.323v-.323Zm.323 0h.323v.323h-.323v-.323Zm0-.324h.323v.324h-.323v-.324Zm0 .647h.323v.323h-.323v-.323Zm0 .323h.323v.323h-.323v-.323Zm-.323 0h.323v.323h-.323v-.323Zm0-.323h.323v.323h-.323v-.323Zm.646 0h.323v.323h-.323v-.323Zm0-.323h.323v.323h-.323v-.323Zm0-.324h.323v.324h-.323v-.324Zm.323 0h.324v.324h-.324v-.324Zm0 .324h.324v.323h-.324v-.323Zm0 .323h.324v.323h-.324v-.323Zm0 .323h.324v.323h-.324v-.323Zm-.323 0h.323v.323h-.323v-.323Zm1.293-.323h.323v.323h-.323v-.323Zm.323 0h.323v.323H5.17v-.323Zm0 .323h.323v.323H5.17v-.323Zm-.323 0h.323v.323h-.323v-.323Zm0 .323h.323v.323h-.323v-.323Zm.323 0h.323v.323H5.17v-.323Zm-.323.646h.323v.323h-.323v-.323Zm1.292-1.939h.323v.324H6.14v-.324Zm.323 0h.324v.324h-.324v-.324Zm0 .324h.324v.323h-.324v-.323Zm0 .323h.324v.323h-.324v-.323Zm0 .323h.324v.323h-.324v-.323Zm-.323 0h.323v.323H6.14v-.323Zm0 .323h.323v.323H6.14v-.323Zm0-.646h.323v.323H6.14v-.323Zm0-.323h.323v.323H6.14v-.323Zm0 1.615h.323v.323H6.14v-.323Zm.323 0h.324v.323h-.324v-.323Zm0-.646h.324v.323h-.324v-.323Zm.324-.97h.323v.324h-.323v-.323Zm.323.324h.323v.323h-.323v-.323Zm0 .323h.323v.323h-.323v-.323Zm-.323 0h.323v.323h-.323v-.323Zm0-.323h.323v.323h-.323v-.323Zm0 .646h.323v.323h-.323v-.323Zm.323 0h.323v.323h-.323v-.323Zm-.323.646h.323v.323h-.323v-.323Zm.323 0h.323v.323h-.323v-.323Zm-4.2-.646h.322v.323h-.323v-.323Zm.322 0h.323v.323h-.323v-.323Zm.323 0h.323v.323h-.323v-.323Zm0 .646h.323v.323h-.323v-.323Zm.323 0h.324v.323h-.324v-.323Zm0-.646h.324v.323h-.324v-.323Zm-.646.646h.323v.323h-.323v-.323Zm-.323-.323h.323v.323h-.323v-.323Zm.323 0h.323v.323h-.323v-.323Zm.323 0h.323v.323h-.323v-.323Zm.323 0h.324v.323h-.324v-.323Zm2.262 0h.323v.323H6.14v-.323Zm.323 0h.324v.323h-.324v-.323Zm.324 0h.323v.323h-.323v-.323Zm.323 0h.323v.323h-.323v-.323Zm-.97.646h.323v.323H6.14v-.323Zm0 .323h.323v.323H6.14V8.03Zm.323 0h.324v.323h-.324V8.03Zm.324 0h.323v.323h-.323V8.03Zm.323 0h.323v.323h-.323V8.03Zm0-.323h.323v.323h-.323v-.323Zm-.323 0h.323v.323h-.323v-.323Zm-.324 0h.324v.323h-.324v-.323Zm.647.646h.323v.324h-.323v-.324Zm-.323 0h.323v.324h-.323v-.324Zm0 .324h.323V9h-.323v-.323Zm.323 0h.323V9h-.323v-.323Zm.323 0h.323V9h-.323v-.323Zm0-.324h.323v.324h-.323v-.324Zm.323 0h.323v.324h-.323v-.324Zm0 .324h.323V9h-.323v-.323Zm.646-.97h.323v.323h-.323v-.323Zm0 .323h.323v.323h-.323V8.03Zm-.323 0h.323v.323h-.323V8.03Zm-4.2-5.493H4.2v.324h-.324v-.324Zm0 .324H4.2v.323h-.324V2.86Zm0 .323H4.2v.323h-.324v-.323Zm0 .323H4.2v.323h-.324v-.323Zm0 .323H4.2v.323h-.324V3.83Zm-.324 0h.323v.323h-.323V3.83Zm-.646-.97h.323v.324h-.323V2.86Zm0 .97h.323v.323h-.323V3.83Zm.323 0h.323v.323h-.323V3.83Zm0-2.262h.323v.323h-.323v-.323Zm0 .323h.323v.323h-.323v-.323Zm.323-.323h.323v.323h-.323v-.323Zm0 .323h.323v.323h-.323v-.323Zm.323 0h.324v.323h-.324v-.323Zm0 .323h.324v.323h-.324v-.323Zm-.323 0h.323v.323h-.323v-.323Zm-.646.323h.323v.324h-.323v-.324Zm0-.646h.323v.323h-.323v-.323Zm0 .323h.323v.323h-.323v-.323Zm0-1.292h.323v.323h-.323V.922Zm0 .323h.323v.323h-.323v-.323Zm.323 0h.323v.323h-.323v-.323ZM2.585.922h.323v.323h-.323V.922Zm-.323 0h.323v.323h-.323V.922Zm.323.323h.323v.323h-.323v-.323Zm-.646 0h.323v.323h-.323v-.323Zm0-.323h.323v.323h-.323V.922Zm.97.646h.322v.323h-.323v-.323Zm-.324 0h.323v.323h-.323v-.323Zm-.646 0h.323v.323h-.323v-.323Zm.646.323h.323v.323h-.323v-.323Zm-.323 0h.323v.323h-.323v-.323Zm-.323 0h.323v.323h-.323v-.323Zm.323-.323h.323v.323h-.323v-.323Zm0-.323h.323v.323h-.323v-.323Zm-.646 2.262h.323v.323h-.323v-.323Zm.323 0h.323v.323h-.323v-.323Zm.323 0h.323v.323h-.323v-.323Zm.323 0h.323v.323h-.323v-.323Zm0 .323h.323v.323h-.323V3.83Zm-.323 0h.323v.323h-.323V3.83Zm-.323 0h.323v.323h-.323V3.83Zm-.323 0h.323v.323h-.323V3.83Zm1.292-.646h.323v.323h-.323v-.323Zm0 .323h.323v.323h-.323v-.323Zm.323-1.293h.323v.323h-.323v-.323Zm0 .323h.323v.324h-.323v-.324Zm0 .324h.323v.323h-.323V2.86Zm0 .323h.323v.323h-.323v-.323Zm0 .323h.323v.323h-.323v-.323Zm.323 0h.323v.323h-.323v-.323Zm0-.323h.323v.323h-.323v-.323Zm0-.323h.323v.323h-.323V2.86Zm0-.324h.323v.324h-.323v-.324Zm.647-.323h.323v.323H4.2v-.323Zm-1.94 0h.324v.323h-.323v-.323Zm.324.323h.323v.324h-.323v-.324Zm0-.323h.323v.323h-.323v-.323Zm1.292 6.463h.324V9h-.324v-.323Zm-.323 0h.323V9h-.323v-.323Zm0-.324h.323v.324h-.323v-.324Zm.323 0h.324v.324h-.324v-.324Zm.324-.323h.323v.323H4.2V8.03Zm.323-.323h.323v.323h-.323v-.323Zm0 .323h.323v.323h-.323V8.03Zm.323-.969h.323v.323h-.323v-.323Zm.323 0h.323v.323H5.17v-.323Zm0 .323h.323v.323H5.17v-.323Zm-2.585.323h.323v.323h-.323v-.323Zm-.323 0h.323v.323h-.323v-.323Zm0 .323h.323v.323h-.323V8.03Zm.323 0h.323v.323h-.323V8.03Zm.646.323h.323v.324h-.323v-.324Zm-.323 0h.323v.324h-.323v-.324Zm0 .324h.323V9h-.323v-.323Zm.323 0h.323V9h-.323v-.323Zm-.323-.97h.323v.323h-.323v-.323Zm.323 0h.323v.323h-.323v-.323Zm.646.323h.324v.323h-.324V8.03Zm-.323 0h.323v.323h-.323V8.03Zm-.323 0h.323v.323h-.323V8.03Zm-.323 0h.323v.323h-.323V8.03Zm-.323-.646h.323v.323h-.323v-.323Zm-.323 0h.323v.323h-.323v-.323Zm-.323.323h.323v.323h-.323v-.323Zm-.323 0h.323v.323h-.323v-.323Zm0 .323h.323v.323h-.323V8.03Zm.323 0h.323v.323h-.323V8.03Zm-.646-.323h.323v.323h-.323v-.323Zm0 .323h.323v.323h-.323V8.03Zm-.324 0h.324v.323H.969V8.03Zm0-.323h.324v.323H.969v-.323Zm-.323.646H.97v.324H.646v-.324Zm-.323 0h.323v.324H.323v-.324Zm0 .324h.323V9H.323v-.323Zm.323-.647H.97v.323H.646V8.03Zm.97-.646h.323v.323h-.323v-.323Zm.323 0h.323v.323h-.323v-.323Zm2.262.97h.323v.323H4.2v-.324Zm.646-.647h.323v.323h-.323v-.323Zm-2.262.646h.323v.324h-.323v-.324Zm-.323 0h.323v.324h-.323v-.324Zm.646-.969h.323v.323h-.323v-.323Zm-.97.97h.324v.323h-.323v-.324Zm.324.323h.323V9h-.323v-.323Zm.323 0h.323V9h-.323v-.323Zm3.877-.324h.324v.324h-.324v-.324Zm1.616 0h.323v.324h-.323v-.324Zm-.646-.323h.323v.323h-.323V8.03ZM5.816 1.568h.323v.323h-.323v-.323Zm0 .323h.323v.323h-.323v-.323Zm-.323 0h.323v.323h-.323v-.323Zm.323.323h.323v.323h-.323v-.323Zm-4.2-.969h.323v.323h-.323v-.323Zm-.323.323h.323v.323h-.323v-.323Zm.323 0h.323v.323h-.323v-.323Zm-.647-.323h.324v.323H.969v-.323Zm-.323 0H.97v.323H.646v-.323Zm0-.323H.97v.323H.646V.922Zm.323.646h.324v.323H.969v-.323Zm.324.323h.323v.323h-.323v-.323Zm.323 0h.323v.323h-.323v-.323Z" fill="#fff"/></svg> 