<svg width="305" height="61" fill="none" xmlns="http://www.w3.org/2000/svg"><path d="M36.62 17.554h2.413v2.414H36.62v-2.414Zm-2.414 0h2.413v2.414h-2.413v-2.414Zm0 2.414h2.413v2.413h-2.413v-2.413Zm0 2.413h2.413v2.414h-2.413v-2.414Zm2.413 0h2.414v2.414H36.62v-2.414Zm0-2.413h2.414v2.413H36.62v-2.413Zm-9.654 4.827h2.413v2.414h-2.413v-2.414Zm0 2.414h2.413v2.413h-2.413V27.21Zm0 2.413h2.413v2.414h-2.413v-2.414Zm-2.414 0h2.414v2.414H24.55v-2.414Zm0-2.413h2.414v2.413H24.55V27.21Zm0-2.414h2.414v2.414H24.55v-2.414Zm-4.827 0h2.413v2.414h-2.413v-2.414Zm0 2.414h2.413v2.413h-2.413V27.21Zm0 2.413h2.413v2.414h-2.413v-2.414Zm0 2.414h2.413v2.414h-2.413v-2.414Zm2.413-2.414h2.414v2.414h-2.414v-2.414Zm0-2.413h2.414v2.413h-2.414V27.21Zm0-2.414h2.414v2.414h-2.414v-2.414Zm-4.827 4.827h2.414v2.414H17.31v-2.414Zm-2.414 0h2.414v2.414h-2.414v-2.414Zm-2.414 0h2.414v2.414h-2.414v-2.414Zm-2.413 0h2.413v2.414H10.07v-2.414Zm0 2.414h2.413v2.414H10.07v-2.414Zm2.413 0h2.414v2.414h-2.414v-2.414Zm2.414 0h2.414v2.414h-2.414v-2.414Zm2.414 0h2.414v2.414H17.31v-2.414Zm4.827 0h2.414v2.414h-2.414v-2.414Zm2.414 0h2.414v2.414H24.55v-2.414Zm2.414 0h2.413v2.414h-2.413v-2.414ZM43.86.658h2.414v2.414H43.86V.658Zm2.414 0h2.414v2.414h-2.414V.658Zm0 2.414h2.414v2.414h-2.414V3.072Zm0 2.414h2.414v2.413h-2.414V5.486Zm0 2.413h2.414v2.414h-2.414V7.899Zm-2.414 0h2.414v2.414H43.86V7.899Zm0 2.414h2.414v2.414H43.86v-2.414Zm0 2.414h2.414v2.413H43.86v-2.413Zm0 2.413h2.414v2.414H43.86V15.14Zm0 2.414h2.414v2.414H43.86v-2.414Zm0 2.414h2.414v2.413H43.86v-2.413Zm0 2.413h2.414v2.414H43.86v-2.414Zm2.414-2.413h2.414v2.413h-2.414v-2.413Zm0-2.414h2.414v2.414h-2.414v-2.414Zm0-2.414h2.414v2.414h-2.414V15.14Zm0-2.413h2.414v2.413h-2.414v-2.413Zm0-2.414h2.414v2.414h-2.414v-2.414Zm0 12.068h2.414v2.414h-2.414v-2.414Zm2.414-16.895H51.1v2.413h-2.413V5.486Zm2.413 0h2.414v2.413h-2.413V5.486Zm0 2.413h2.414v2.414h-2.413V7.899Zm0 2.414h2.414v2.414h-2.413v-2.414Zm0 2.414h2.414v2.413h-2.413v-2.413Zm-2.413 0H51.1v2.413h-2.413v-2.413Zm0 2.413H51.1v2.414h-2.413V15.14Zm0 2.414H51.1v2.414h-2.413v-2.414Zm0 2.414H51.1v2.413h-2.413v-2.413Zm0-9.655H51.1v2.414h-2.413v-2.414Zm0-2.414H51.1v2.414h-2.413V7.899Zm0 14.482H51.1v2.414h-2.413v-2.414Zm2.413-2.413h2.414v2.413h-2.413v-2.413Zm0-2.414h2.414v2.414h-2.413v-2.414Zm0-2.414h2.414v2.414h-2.413V15.14Zm-7.24 9.655h2.413v2.414H43.86v-2.414Zm0 2.414h2.413v2.413H43.86V27.21Zm2.413-2.414h2.414v2.414h-2.414v-2.414Zm7.241-19.31h2.414V7.9h-2.414V5.486Zm2.414 0h2.413V7.9H55.93V5.486ZM53.515 7.9h2.414v2.414h-2.414V7.899Zm4.828-4.827h2.413v2.414h-2.413V3.072Zm-9.655 0H51.1v2.414h-2.413V3.072Zm7.24 0h2.415v2.414h-2.414V3.072ZM36.62 5.486h2.414v2.413H36.62V5.486Zm0 2.413h2.414v2.414H36.62V7.899Zm-2.413 0h2.413v2.414h-2.413V7.899Zm-2.414 2.414h2.414v2.414h-2.414v-2.414Zm0 2.414h2.414v2.413h-2.414v-2.413Zm-2.414 0h2.414v2.413h-2.414v-2.413Zm9.655-9.655h2.414v2.414h-2.414V3.072ZM41.447.658h2.413v2.414h-2.413V.658Zm0 2.414h2.413v2.414h-2.413V3.072Zm2.413 0h2.414v2.414H43.86V3.072Zm0 2.414h2.414v2.413H43.86V5.486ZM58.343.658h2.413v2.414h-2.413V.658Zm-24.137 9.655h2.413v2.414h-2.413v-2.414Zm-4.828 4.827h2.414v2.414h-2.414V15.14Zm9.655-9.654h2.414v2.413h-2.414V5.486Zm2.414 24.136h2.413v2.414h-2.413v-2.414Zm-2.414 0h2.414v2.414h-2.414v-2.414Zm0 2.414h2.414v2.414h-2.414v-2.414Zm2.414 0h2.413v2.414h-2.413v-2.414Zm-4.828-2.414h2.414v2.414H36.62v-2.414Zm-2.413 0h2.413v2.414h-2.413v-2.414Zm0 2.414h2.413v2.414h-2.413v-2.414Zm2.413 0h2.414v2.414H36.62v-2.414ZM19.724 34.45h2.413v2.413h-2.413V34.45Zm0 2.413h2.413v2.414h-2.413v-2.413Zm2.413 0h2.414v2.414h-2.414v-2.413Zm0-2.413h2.414v2.413h-2.414V34.45Zm0 4.827h2.414v2.414h-2.414v-2.414Zm0 2.414h2.414v2.414h-2.414V41.69Zm-2.413 0h2.413v2.414h-2.413V41.69Zm0-2.414h2.413v2.414h-2.413v-2.414Zm4.827 0h2.414v2.414H24.55v-2.414Zm0-2.413h2.414v2.413H24.55v-2.413Zm0-2.414h2.414v2.413H24.55V34.45Zm2.414 0h2.413v2.413h-2.413V34.45Zm0 2.413h2.413v2.414h-2.413v-2.413Zm0 2.414h2.413v2.414h-2.413v-2.414Zm0 2.414h2.413v2.414h-2.413V41.69Zm-2.414 0h2.414v2.414H24.55V41.69Zm9.655-2.414h2.413v2.414h-2.413v-2.414Zm2.413 0h2.414v2.414H36.62v-2.414Zm0 2.414h2.414v2.414H36.62V41.69Zm-2.413 0h2.413v2.414h-2.413V41.69Zm0 2.414h2.413v2.413h-2.413v-2.413Zm2.413 0h2.414v2.413H36.62v-2.413Zm-2.413 4.827h2.413v2.414h-2.413v-2.414ZM43.86 34.45h2.414v2.413H43.86V34.45Zm2.414 0h2.414v2.413h-2.414V34.45Zm0 2.413h2.414v2.414h-2.414v-2.413Zm0 2.414h2.414v2.414h-2.414v-2.414Zm0 2.414h2.414v2.414h-2.414V41.69Zm-2.414 0h2.414v2.414H43.86V41.69Zm0 2.414h2.414v2.413H43.86v-2.413Zm0-4.828h2.414v2.414H43.86v-2.414Zm0-2.413h2.414v2.413H43.86v-2.413Zm0 12.068h2.414v2.414H43.86v-2.414Zm2.414 0h2.414v2.414h-2.414v-2.414Zm0-4.827h2.414v2.413h-2.414v-2.413Zm2.414-7.241H51.1v2.413h-2.413v-2.413Zm2.413 2.413h2.414v2.414h-2.413v-2.414Zm0 2.414h2.414v2.414h-2.413V41.69Zm-2.413 0H51.1v2.414h-2.413V41.69Zm0-2.414H51.1v2.414h-2.413v-2.414Zm0 4.828H51.1v2.413h-2.413v-2.413Zm2.413 0h2.414v2.413h-2.413v-2.413Zm-2.413 4.827H51.1v2.414h-2.413v-2.414Zm2.413 0h2.414v2.414h-2.413v-2.414Zm-31.377-4.827h2.413v2.413h-2.413v-2.413Zm2.413 0h2.414v2.413h-2.414v-2.413Zm2.414 0h2.414v2.413H24.55v-2.413Zm0 4.827h2.414v2.414H24.55v-2.414Zm2.414 0h2.413v2.414h-2.413v-2.414Zm0-4.827h2.413v2.413h-2.413v-2.413Zm-4.828 4.827h2.414v2.414h-2.414v-2.414Zm-2.413-2.414h2.413v2.414h-2.413v-2.414Zm2.413 0h2.414v2.414h-2.414v-2.414Zm2.414 0h2.414v2.414H24.55v-2.414Zm2.414 0h2.413v2.414h-2.413v-2.414Zm16.895 0h2.414v2.414H43.86v-2.414Zm2.414 0h2.414v2.414h-2.414v-2.414Zm2.414 0H51.1v2.414h-2.413v-2.414Zm2.413 0h2.414v2.414h-2.413v-2.414Zm-7.24 4.828h2.413v2.413H43.86v-2.413Zm0 2.413h2.413v2.414H43.86v-2.414Zm2.413 0h2.414v2.414h-2.414v-2.414Zm2.414 0H51.1v2.414h-2.413v-2.414Zm2.413 0h2.414v2.414h-2.413v-2.414Zm0-2.413h2.414v2.413h-2.413v-2.413Zm-2.413 0H51.1v2.413h-2.413v-2.413Zm-2.414 0h2.414v2.413h-2.414v-2.413Zm4.828 4.827h2.413v2.414h-2.413v-2.414Zm-2.414 0H51.1v2.414h-2.413v-2.414Zm0 2.414H51.1V61h-2.413v-2.413Zm2.413 0h2.414V61h-2.413v-2.413Zm2.414 0h2.414V61h-2.414v-2.413Zm0-2.414h2.414v2.414h-2.414v-2.414Zm2.414 0h2.413v2.414H55.93v-2.414Zm0 2.414h2.413V61H55.93v-2.413Zm4.827-7.241h2.414v2.413h-2.414v-2.413Zm0 2.413h2.414v2.414h-2.414v-2.414Zm-2.413 0h2.413v2.414h-2.413v-2.414ZM26.965 12.727h2.413v2.413h-2.413v-2.413Zm0 2.413h2.413v2.414h-2.413V15.14Zm0 2.414h2.413v2.414h-2.413v-2.414Zm0 2.414h2.413v2.413h-2.413v-2.413Zm0 2.413h2.413v2.414h-2.413v-2.414Zm-2.414 0h2.414v2.414H24.55v-2.414Zm-4.827-7.24h2.413v2.413h-2.413V15.14Zm0 7.24h2.413v2.414h-2.413v-2.414Zm2.413 0h2.414v2.414h-2.414v-2.414Zm0-16.895h2.414v2.413h-2.414V5.486Zm0 2.413h2.414v2.414h-2.414V7.899Zm2.414-2.413h2.414v2.413H24.55V5.486Zm0 2.413h2.414v2.414H24.55V7.899Zm2.414 0h2.413v2.414h-2.413V7.899Zm0 2.414h2.413v2.414h-2.413v-2.414Zm-2.414 0h2.414v2.414H24.55v-2.414Zm-4.827 2.414h2.413v2.413h-2.413v-2.413Zm0-4.828h2.413v2.414h-2.413V7.899Zm0 2.414h2.413v2.414h-2.413v-2.414Zm0-9.655h2.413v2.414h-2.413V.658Zm0 2.414h2.413v2.414h-2.413V3.072Zm2.413 0h2.414v2.414h-2.414V3.072ZM17.31.658h2.414v2.414H17.31V.658Zm-2.414 0h2.414v2.414h-2.414V.658Zm2.414 2.414h2.414v2.414H17.31V3.072Zm-4.827 0h2.413v2.414h-2.414V3.072Zm0-2.414h2.413v2.414h-2.414V.658Zm7.24 4.828h2.414v2.413h-2.413V5.486Zm-2.413 0h2.414v2.413H17.31V5.486Zm-4.827 0h2.413v2.413h-2.414V5.486Zm4.827 2.413h2.414v2.414H17.31V7.899Zm-2.414 0h2.414v2.414h-2.414V7.899Zm-2.414 0h2.414v2.414h-2.414V7.899Zm2.414-2.413h2.414v2.413h-2.414V5.486Zm0-2.414h2.414v2.414h-2.414V3.072ZM10.07 19.968h2.413v2.413H10.07v-2.413Zm2.413 0h2.414v2.413h-2.414v-2.413Zm2.414 0h2.414v2.413h-2.414v-2.413Zm2.414 0h2.414v2.413H17.31v-2.413Zm0 2.413h2.414v2.414H17.31v-2.414Zm-2.414 0h2.414v2.414h-2.414v-2.414Zm-2.414 0h2.414v2.414h-2.414v-2.414Zm-2.413 0h2.413v2.414H10.07v-2.414Zm9.655-4.827h2.413v2.414h-2.413v-2.414Zm0 2.414h2.413v2.413h-2.413v-2.413Zm2.413-9.655h2.414v2.414h-2.414v-2.414Zm0 2.414h2.414v2.413h-2.414v-2.413Zm0 2.413h2.414v2.414h-2.414V15.14Zm0 2.414h2.414v2.414h-2.414v-2.414Zm0 2.414h2.414v2.413h-2.414v-2.413Zm2.414 0h2.414v2.413H24.55v-2.413Zm0-2.414h2.414v2.414H24.55v-2.414Zm0-2.414h2.414v2.414H24.55V15.14Zm0-2.413h2.414v2.413H24.55v-2.413Zm4.827-2.414h2.414v2.414h-2.414v-2.414Zm-14.482 0h2.414v2.414h-2.414v-2.414Zm2.414 2.414h2.414v2.413H17.31v-2.413Zm0-2.414h2.414v2.414H17.31v-2.414Zm9.655 48.274h2.413V61h-2.413v-2.413Zm-2.414 0h2.414V61H24.55v-2.413Zm0-2.414h2.414v2.414H24.55v-2.414Zm2.414 0h2.413v2.414h-2.413v-2.414Zm2.413-2.414h2.414v2.414h-2.414v-2.414Zm2.414-2.413h2.414v2.413h-2.414v-2.413Zm0 2.413h2.414v2.414h-2.414v-2.414Zm2.414-7.24h2.413v2.413h-2.413v-2.414Zm2.413 0h2.414v2.413H36.62v-2.414Zm0 2.413h2.414v2.414H36.62v-2.414Zm-19.31 2.414h2.415v2.413H17.31v-2.413Zm-2.413 0h2.414v2.413h-2.414v-2.413Zm0 2.413h2.414v2.414h-2.414v-2.414Zm2.414 0h2.414v2.414H17.31v-2.414Zm4.827 2.414h2.414v2.414h-2.414v-2.414Zm-2.413 0h2.413v2.414h-2.413v-2.414Zm0 2.414h2.413V61h-2.413v-2.413Zm2.413 0h2.414V61h-2.414v-2.413Zm-2.413-7.241h2.413v2.413h-2.413v-2.413Zm2.413 0h2.414v2.413h-2.414v-2.413Zm4.828 2.413h2.413v2.414h-2.413v-2.414Zm-2.414 0h2.414v2.414H24.55v-2.414Zm-2.414 0h2.414v2.414h-2.414v-2.414Zm-2.413 0h2.413v2.414h-2.413v-2.414Zm-2.414-4.827h2.414v2.414H17.31v-2.414Zm-2.414 0h2.414v2.414h-2.414v-2.414Zm-2.414 2.414h2.414v2.413h-2.414v-2.413Zm-2.413 0h2.413v2.413H10.07v-2.413Zm0 2.413h2.413v2.414H10.07v-2.414Zm2.413 0h2.414v2.414h-2.414v-2.414Zm-4.827-2.413h2.414v2.413H7.655v-2.413Zm0 2.413h2.414v2.414H7.655v-2.414Zm-2.414 0h2.414v2.414H5.241v-2.414Zm0-2.413h2.414v2.413H5.241v-2.413Zm-2.413 4.827H5.24v2.414H2.828v-2.414Zm-2.414 0h2.414v2.414H.414v-2.414Zm0 2.414h2.414V61H.414v-2.413Zm2.414-4.828H5.24v2.414H2.828v-2.414Zm7.24-4.827h2.415v2.414h-2.414v-2.414Zm2.415 0h2.413v2.414h-2.414v-2.414Zm16.895 7.241h2.414v2.414h-2.414v-2.414Zm4.828-4.827h2.413v2.413h-2.413v-2.413ZM17.31 56.173h2.414v2.414H17.31v-2.414Zm-2.414 0h2.414v2.414h-2.414v-2.414Zm4.828-7.241h2.413v2.414h-2.413v-2.414Zm-7.242 7.241h2.414v2.414h-2.414v-2.414Zm2.414 2.414h2.414V61h-2.414v-2.413Zm2.414 0h2.414V61H17.31v-2.413Zm28.964-2.414h2.414v2.414h-2.414v-2.414Zm12.069 0h2.413v2.414h-2.413v-2.414Zm-4.828-2.414h2.414v2.414h-2.414v-2.414ZM41.447 5.486h2.413v2.413h-2.413V5.486Zm0 2.413h2.413v2.414h-2.413V7.899Zm-2.414 0h2.414v2.414h-2.414V7.899Zm2.414 2.414h2.413v2.414h-2.413v-2.414ZM10.069 3.072h2.413v2.414H10.07V3.072ZM7.655 5.486h2.414v2.413H7.655V5.486Zm2.414 0h2.413v2.413H10.07V5.486ZM5.24 3.072h2.414v2.414H5.241V3.072Zm-2.413 0H5.24v2.414H2.828V3.072Zm0-2.414H5.24v2.414H2.828V.658ZM5.24 5.486h2.414v2.413H5.241V5.486Zm2.414 2.413h2.414v2.414H7.655V7.899Zm2.414 0h2.413v2.414H10.07V7.899ZM68 5.486h2.413v2.413H68V5.486Zm-2.414 0H68v2.413h-2.414V5.486Zm0 2.413H68v2.414h-2.414V7.899Zm4.827-4.827h2.414v2.414h-2.414V3.072Zm0-2.414h2.414v2.414h-2.414V.658Zm2.414 0h2.414v2.414h-2.414V.658Zm0 2.414h2.414v2.414h-2.414V3.072ZM75.241.658h2.413v2.414h-2.413V.658Zm0 2.414h2.413v2.414h-2.413V3.072Zm2.413 0h2.414v2.414h-2.414V3.072Zm0-2.414h2.414v2.414h-2.414V.658Zm2.414 0h2.414v2.414h-2.414V.658Zm2.414 0h2.413v2.414h-2.413V.658Zm0 2.414h2.413v2.414h-2.413V3.072Zm-2.414 0h2.414v2.414h-2.414V3.072ZM84.896.658h2.413v2.414h-2.413V.658Zm2.413 0h2.414v2.414h-2.414V.658Zm0 2.414h2.414v2.414h-2.414V3.072Zm0 2.414h2.414v2.413h-2.414V5.486Zm-2.413 0h2.413v2.413h-2.413V5.486Zm0-2.414h2.413v2.414h-2.413V3.072Zm2.413 4.827h2.414v2.414h-2.414V7.899ZM89.723.66h2.413v2.413h-2.413V.658Zm0 2.413h2.413v2.414h-2.413V3.072Zm0 2.414h2.413v2.413h-2.413V5.486Zm0 2.413h2.413v2.414h-2.413V7.899Zm2.413 0h2.414v2.414h-2.413V7.899Zm0-2.413h2.414v2.413h-2.413V5.486Zm0-2.414h2.414v2.414h-2.413V3.072Zm2.414 2.414h2.414v2.413H94.55V5.486Zm0 2.413h2.414v2.414H94.55V7.899Zm2.414-2.413h2.414v2.413h-2.414V5.486Zm2.414 0h2.413v2.413h-2.413V5.486Zm-2.414 2.413h2.414v2.414h-2.414V7.899Zm4.827-4.827h2.414v2.414h-2.414V3.072Zm0-2.414h2.414v2.414h-2.414V.658Zm12.069 0h2.413v2.414h-2.413V.658Zm0 2.414h2.413v2.414h-2.413V3.072Zm-2.414 0h2.414v2.414h-2.414V3.072Zm-2.414 2.414h2.414v2.413h-2.414V5.486Zm0 2.413h2.414v2.414h-2.414V7.899Zm-2.413 0h2.413v2.414h-2.413V7.899Zm-2.414 2.414h2.414v2.414h-2.414v-2.414Zm2.414 0h2.413v2.414h-2.413v-2.414Zm2.413 0h2.414v2.414h-2.414v-2.414Zm0 2.414h2.414v2.413h-2.414v-2.413Zm0 2.413h2.414v2.414h-2.414V15.14Zm0 2.414h2.414v2.414h-2.414v-2.414Zm-2.413 0h2.413v2.414h-2.413v-2.414Zm0-2.414h2.413v2.414h-2.413V15.14Zm0-2.413h2.413v2.413h-2.413v-2.413Zm-2.414 0h2.414v2.413h-2.414v-2.413Zm0 2.413h2.414v2.414h-2.414V15.14Zm0 2.414h2.414v2.414h-2.414v-2.414Zm-2.414 0h2.414v2.414h-2.414v-2.414Zm0-2.414h2.414v2.414h-2.414V15.14Zm0-2.413h2.414v2.413h-2.414v-2.413Zm-7.24 2.413h2.413v2.414H94.55V15.14Zm-2.415 0h2.414v2.414h-2.413V15.14Zm0 2.414h2.414v2.414h-2.413v-2.414Zm2.414 0h2.414v2.414H94.55v-2.414Zm-2.413 2.414h2.413v2.413h-2.413v-2.413Zm0 2.413h2.413v2.414h-2.413v-2.414Zm0 2.414h2.413v2.414h-2.413v-2.414Zm0 2.414h2.413v2.413h-2.413V27.21Zm0 4.827h2.413v2.414h-2.413v-2.414Zm0 4.828h2.413v2.413h-2.413v-2.413Zm0 2.413h2.413v2.414h-2.413v-2.414Zm2.413 0h2.414v2.414H94.55v-2.414Zm0-2.413h2.414v2.413H94.55v-2.413Zm0-16.896h2.414v2.413H94.55v-2.413Zm0 2.413h2.414v2.414H94.55v-2.414Zm0 2.414h2.414v2.414H94.55v-2.414Zm0 2.414h2.414v2.413H94.55V27.21Zm0 2.413h2.414v2.414H94.55v-2.414Zm0 2.414h2.414v2.414H94.55v-2.414Zm0 2.414h2.414v2.413H94.55V34.45Zm-2.413 0h2.413v2.413h-2.413V34.45Zm0-4.828h2.413v2.414h-2.413v-2.414Zm-2.414-4.827h2.413v2.414h-2.413v-2.414Zm-2.414 0h2.414v2.414h-2.414v-2.414Zm0 2.414h2.414v2.413h-2.414V27.21Zm2.414 0h2.413v2.413h-2.413V27.21Zm0 7.24h2.413v2.415h-2.413V34.45Zm-2.414 0h2.414v2.415h-2.414V34.45Zm0 2.415h2.414v2.413h-2.414v-2.413Zm2.414 0h2.413v2.413h-2.413v-2.413Zm2.413 7.24h2.414v2.414h-2.413v-2.413Zm2.414 0h2.414v2.414H94.55v-2.413Zm0 2.414h2.414v2.414H94.55v-2.414Zm0 2.414h2.414v2.414H94.55v-2.414Zm-2.413 0h2.413v2.414h-2.413v-2.414Zm0-2.414h2.413v2.414h-2.413v-2.414Zm-7.242-9.654h2.414v2.413h-2.413v-2.413Zm-2.413 0h2.413v2.413h-2.413v-2.413Zm0-2.414h2.413v2.413h-2.413V34.45Zm2.413 0h2.414v2.413h-2.413V34.45Zm0-7.241h2.414v2.413h-2.413V27.21Zm0-2.414h2.414v2.414h-2.413v-2.414Zm-2.413 0h2.413v2.414h-2.413v-2.414Zm0 2.414h2.413v2.413h-2.413V27.21Zm21.723-7.241h2.414v2.413h-2.414v-2.413Zm-2.414 0h2.414v2.413h-2.414v-2.413Zm0 2.413h2.414v2.414h-2.414v-2.414Zm0 2.414h2.414v2.414h-2.414v-2.414Zm0 2.414h2.414v2.413h-2.414V27.21Zm0 2.413h2.414v2.414h-2.414v-2.414Zm0 2.414h2.414v2.414h-2.414v-2.414Zm0 2.414h2.414v2.413h-2.414V34.45Zm0 2.413h2.414v2.414h-2.414v-2.413Zm0 2.414h2.414v2.414h-2.414v-2.414Zm0 4.828h2.414v2.413h-2.414v-2.413Zm0 2.413h2.414v2.414h-2.414v-2.414Zm0 2.414h2.414v2.414h-2.414v-2.414Zm2.414 0h2.414v2.414h-2.414v-2.414Zm0-2.414h2.414v2.414h-2.414v-2.414Zm0-2.413h2.414v2.413h-2.414v-2.413Zm0-4.828h2.414v2.414h-2.414v-2.414Zm0-2.413h2.414v2.413h-2.414v-2.413Zm0-2.414h2.414v2.413h-2.414V34.45Zm0-2.414h2.414v2.414h-2.414v-2.414Zm0-2.414h2.414v2.414h-2.414v-2.414Zm0-2.413h2.414v2.413h-2.414V27.21Zm0-2.414h2.414v2.414h-2.414v-2.414Zm0-2.414h2.414v2.414h-2.414v-2.414Zm2.414-2.413h2.413v2.413h-2.413v-2.413Zm0 2.413h2.413v2.414h-2.413v-2.414Zm0 2.414h2.413v2.414h-2.413v-2.414Zm0 2.414h2.413v2.413h-2.413V27.21Zm0 2.413h2.413v2.414h-2.413v-2.414Zm0 4.828h2.413v2.413h-2.413V34.45Zm0 2.413h2.413v2.414h-2.413v-2.413Zm0 2.414h2.413v2.414h-2.413v-2.414Zm0 4.828h2.413v2.413h-2.413v-2.413Zm2.413 0h2.414v2.413h-2.414v-2.413Zm0-4.828h2.414v2.414h-2.414v-2.414Zm0-2.413h2.414v2.413h-2.414v-2.413Zm0-2.414h2.414v2.413h-2.414V34.45Zm0-2.414h2.414v2.414h-2.414v-2.414Zm0-2.414h2.414v2.414h-2.414v-2.414Zm0-2.413h2.414v2.413h-2.414V27.21Zm0-2.414h2.414v2.414h-2.414v-2.414Zm0-2.414h2.414v2.414h-2.414v-2.414Zm0-2.413h2.414v2.413h-2.414v-2.413Zm-2.413 12.068h2.413v2.414h-2.413v-2.414Zm-4.828 21.723h2.414v2.414h-2.414v-2.414Zm0-2.413h2.414v2.413h-2.414v-2.413Zm2.414 0h2.414v2.413h-2.414v-2.413Zm4.827-4.828h2.414v2.414h-2.414v-2.414Zm-2.413 0h2.413v2.414h-2.413v-2.414Zm0 2.414h2.413v2.414h-2.413v-2.414Zm-16.896 2.414h2.413v2.413h-2.413v-2.413Zm-2.414 0h2.414v2.413h-2.414v-2.413Zm0 2.413h2.414v2.414h-2.414v-2.414Zm2.414 0h2.413v2.414h-2.413v-2.414Zm0 2.414h2.413v2.414h-2.413v-2.414Zm-2.414 0h2.414v2.414h-2.414v-2.414Zm0 2.414h2.414V61h-2.414v-2.413Zm2.414 0h2.413V61h-2.413v-2.413Zm-4.828-7.241h2.414v2.413h-2.413v-2.413Zm-2.413 0h2.413v2.413h-2.413v-2.413Zm0 2.413h2.413v2.414h-2.413v-2.414Zm-2.414 0h2.414v2.414h-2.414v-2.414Zm2.414 2.414h2.413v2.414h-2.413v-2.414Zm0 2.414h2.413V61h-2.413v-2.413Zm2.413 0h2.414V61h-2.413v-2.413Zm0-2.414h2.414v2.414h-2.413v-2.414Zm0-2.414h2.414v2.414h-2.413v-2.414Zm-4.827-2.413h2.414v2.413h-2.414v-2.413Zm-2.414 2.413h2.414v2.414h-2.414v-2.414Zm0-2.413h2.414v2.413h-2.414v-2.413Zm-2.413 0h2.413v2.413h-2.413v-2.413Zm-4.828 4.827h2.414v2.414h-2.414v-2.414Zm-2.413 0h2.413v2.414H68v-2.414Zm0 2.414h2.413V61H68v-2.413ZM92.136 41.69h2.414v2.414h-2.413V41.69Zm2.414 0h2.414v2.414H94.55V41.69Zm7.241 0h2.414v2.414h-2.414V41.69Zm2.414 0h2.414v2.414h-2.414V41.69Zm2.414 0h2.413v2.414h-2.413V41.69Zm2.413 0h2.414v2.414h-2.414V41.69ZM68 3.07h2.413v2.415H68V3.072Zm31.378 0h2.413v2.415h-2.413V3.072Zm12.068 2.415h2.414v2.413h-2.414V5.486ZM99.378 56.173h2.413v2.414h-2.413v-2.414Zm-2.414 0h2.414v2.414h-2.414v-2.414Zm-2.414 0h2.414v2.414H94.55v-2.414Zm-2.413 0h2.413v2.414h-2.413v-2.414Zm0 2.414h2.413V61h-2.413v-2.413Zm2.413 0h2.414V61H94.55v-2.413Zm2.414 0h2.414V61h-2.414v-2.413Zm-16.896-2.414h2.414v2.414h-2.414v-2.414Zm-7.241-2.414h2.414v2.414h-2.414v-2.414Zm-2.414 0h2.414v2.414h-2.414v-2.414Zm2.414-2.413h2.414v2.413h-2.414v-2.413Zm2.414 2.413h2.413v2.414h-2.413v-2.414Zm16.895-2.413h2.414v2.413h-2.413v-2.413Zm7.242 2.413h2.413v2.414h-2.413v-2.414ZM130.784 48.932h2.413v2.414h-2.413v-2.414Zm-2.414 2.414h2.414v2.413h-2.414v-2.413Zm2.414 0h2.413v2.413h-2.413v-2.413Zm4.827 0h2.414v2.413h-2.414v-2.413Zm0 2.413h2.414v2.414h-2.414v-2.414Zm-4.827 0h2.413v2.414h-2.413v-2.414Zm7.241 0h2.414v2.414h-2.414v-2.414Zm14.482-2.413h2.414v2.413h-2.414v-2.413Zm0 2.413h2.414v2.414h-2.414v-2.414Zm-2.414 0h2.414v2.414h-2.414v-2.414Zm4.828-4.827h2.413v2.414h-2.413v-2.414Zm-7.241 7.241h2.413v2.414h-2.413v-2.414Zm-2.414 0h2.414v2.414h-2.414v-2.414Zm0 2.414h2.414V61h-2.414v-2.413Zm2.414 0h2.413V61h-2.413v-2.413Zm-7.241-2.414h2.413v2.414h-2.413v-2.414Zm-2.414 2.414h2.414V61h-2.414v-2.413Zm2.414 0h2.413V61h-2.413v-2.413Zm-2.414-2.414h2.414v2.414h-2.414v-2.414Zm12.068 0h2.414v2.414h-2.414v-2.414Zm4.828-4.827h2.413v2.413h-2.413v-2.413Zm-28.965 2.413h2.414v2.414h-2.414v-2.414Zm9.655-4.827h2.414v2.414h-2.414v-2.414Zm-12.068 7.241h2.413v2.414h-2.413v-2.414Zm12.068 0h2.414v2.414h-2.414v-2.414Zm4.828-2.414h2.413v2.414h-2.413v-2.414Zm4.827 0h2.414v2.414h-2.414v-2.414Zm2.414 0h2.413v2.414h-2.413v-2.414Zm-26.551 4.828h2.414V61h-2.414v-2.413Zm4.827-7.241h2.414v2.413h-2.414v-2.413Zm-2.413 2.413h2.413v2.414h-2.413v-2.414Zm-2.414 2.414h2.414v2.414h-2.414v-2.414Zm7.241-2.414h2.414v2.414h-2.414v-2.414Zm0-4.827h2.414v2.414h-2.414v-2.414Zm9.655 2.414h2.414v2.413h-2.414v-2.413Zm2.414 0h2.413v2.413h-2.413v-2.413Zm-7.242-2.414h2.414v2.414h-2.414v-2.414Zm0 2.414h2.414v2.413h-2.414v-2.413Zm0 2.413h2.414v2.414h-2.414v-2.414Zm9.655 0h2.414v2.414h-2.414v-2.414Zm0 2.414h2.414v2.414h-2.414v-2.414Zm0 2.414h2.414V61h-2.414v-2.413Zm0-9.655h2.414v2.414h-2.414v-2.414Zm-2.413 0h2.413v2.414h-2.413v-2.414Zm-2.414 0h2.414v2.414h-2.414v-2.414Zm7.241 0h2.414v2.414h-2.414v-2.414Zm0 2.414h2.414v2.413h-2.414v-2.413Zm-2.414 0h2.414v2.413h-2.414v-2.413Zm4.828 0h2.413v2.413h-2.413v-2.413Zm-12.069-21.724h2.414v2.414h-2.414v-2.414Zm-2.414 0h2.414v2.414h-2.414v-2.414Zm-2.413 0h2.413v2.414h-2.413v-2.414Zm0 2.414h2.413v2.414h-2.413v-2.414Zm-2.414 0h2.414v2.414h-2.414v-2.414Zm0-2.414h2.414v2.414h-2.414v-2.414Zm4.827 2.414h2.414v2.414h-2.414v-2.414Zm2.414 0h2.414v2.414h-2.414v-2.414Zm2.414-7.24h2.414v2.413h-2.414v-2.414Zm0 2.413h2.414v2.413h-2.414V27.21Zm0 2.413h2.414v2.414h-2.414v-2.414Zm0 2.414h2.414v2.414h-2.414v-2.414Zm2.414 0h2.413v2.414h-2.413v-2.414Zm2.413 0h2.414v2.414h-2.414v-2.414Zm2.414 0h2.414v2.414h-2.414v-2.414Zm0-2.414h2.414v2.414h-2.414v-2.414Zm0-2.413h2.414v2.413h-2.414V27.21Zm0-2.414h2.414v2.414h-2.414v-2.414Zm-2.414 0h2.414v2.414h-2.414v-2.414Zm0 2.414h2.414v2.413h-2.414V27.21Zm0 2.413h2.414v2.414h-2.414v-2.414Zm-2.413-2.413h2.413v2.413h-2.413V27.21Zm0-2.414h2.413v2.414h-2.413v-2.414Zm0 4.827h2.413v2.414h-2.413v-2.414Zm0 4.828h2.413v2.413h-2.413V34.45Zm-2.414 0h2.414v2.413h-2.414V34.45Zm0 2.413h2.414v2.414h-2.414v-2.413Zm2.414 0h2.413v2.414h-2.413v-2.413Zm0 2.414h2.413v2.414h-2.413v-2.414Zm0 2.414h2.413v2.414h-2.413V41.69Zm-2.414 0h2.414v2.414h-2.414V41.69Zm0-2.414h2.414v2.414h-2.414v-2.414Zm4.827-2.413h2.414v2.413h-2.414v-2.413Zm0-2.414h2.414v2.413h-2.414V34.45Zm2.414 0h2.414v2.413h-2.414V34.45Zm0 2.413h2.414v2.414h-2.414v-2.413Zm0 2.414h2.414v2.414h-2.414v-2.414Zm0 2.414h2.414v2.414h-2.414V41.69Zm-2.414 0h2.414v2.414h-2.414V41.69Zm0-2.414h2.414v2.414h-2.414v-2.414Zm2.414-26.55h2.414v2.413h-2.414v-2.413Zm0 2.413h2.414v2.414h-2.414V15.14Zm0 2.414h2.414v2.414h-2.414v-2.414Zm-7.241-2.414h2.414v2.414h-2.414V15.14Zm0 7.241h2.414v2.414h-2.414v-2.414Zm2.414 0h2.413v2.414h-2.413v-2.414Zm0-16.895h2.413v2.413h-2.413V5.486Zm0 2.413h2.413v2.414h-2.413V7.899Zm2.413 0h2.414v2.414h-2.414V7.899Zm2.414 0h2.414v2.414h-2.414V7.899Zm0 2.414h2.414v2.414h-2.414v-2.414Zm-2.414 0h2.414v2.414h-2.414v-2.414Zm-4.827 2.414h2.414v2.413h-2.414v-2.413Zm0-4.828h2.414v2.414h-2.414V7.899Zm0 2.414h2.414v2.414h-2.414v-2.414Zm0-7.241h2.414v2.414h-2.414V3.072ZM135.611.658h2.414v2.414h-2.414V.658Zm-2.414 0h2.414v2.414h-2.414V.658Zm2.414 2.414h2.414v2.414h-2.414V3.072Zm-4.827 0h2.413v2.414h-2.413V3.072Zm-2.414 0h2.414v2.414h-2.414V3.072Zm2.414-2.414h2.413v2.414h-2.413V.658Zm7.241 4.828h2.414v2.413h-2.414V5.486Zm-2.414 0h2.414v2.413h-2.414V5.486Zm-9.655 0h2.414v2.413h-2.414V5.486Zm4.828 0h2.413v2.413h-2.413V5.486Zm4.827 2.413h2.414v2.414h-2.414V7.899Zm-7.241-2.413h2.414v2.413h-2.414V5.486Zm4.827 2.413h2.414v2.414h-2.414V7.899Zm-2.413 0h2.413v2.414h-2.413V7.899Zm2.413-2.413h2.414v2.413h-2.414V5.486Zm0-2.414h2.414v2.414h-2.414V3.072Zm-2.413 16.896h2.413v2.413h-2.413v-2.413Zm2.413 0h2.414v2.413h-2.414v-2.413Zm2.414 0h2.414v2.413h-2.414v-2.413Zm2.414-2.414h2.414v2.414h-2.414v-2.414Zm0 2.414h2.414v2.413h-2.414v-2.413Zm2.414-9.655h2.413v2.414h-2.413v-2.414Zm0 2.414h2.413v2.413h-2.413v-2.413Zm0 2.413h2.413v2.414h-2.413V15.14Zm0 2.414h2.413v2.414h-2.413v-2.414Zm2.413 0h2.414v2.414h-2.414v-2.414Zm0-2.414h2.414v2.414h-2.414V15.14Zm0-2.413h2.414v2.413h-2.414v-2.413Zm-9.655-2.414h2.414v2.414h-2.414v-2.414Zm2.414 2.414h2.414v2.413h-2.414v-2.413Zm0-2.414h2.414v2.414h-2.414v-2.414Zm-7.241 9.655h2.414v2.413h-2.414v-2.413Zm0 2.413h2.414v2.414h-2.414v-2.414Zm2.414 0h2.413v2.414h-2.413v-2.414Zm2.413 0h2.414v2.414h-2.414v-2.414Zm2.414 0h2.414v2.414h-2.414v-2.414Zm7.241 0h2.414v2.414h-2.414v-2.414Zm2.414 0h2.414v2.414h-2.414v-2.414Zm0-2.413h2.414v2.413h-2.414v-2.413Zm-2.414 0h2.414v2.413h-2.414v-2.413Zm-2.413 0h2.413v2.413h-2.413v-2.413Zm21.723-12.069h2.413v2.414h-2.413V7.899Zm0 2.414h2.413v2.414h-2.413v-2.414Zm2.413-2.414h2.414v2.414h-2.414V7.899Zm0 2.414h2.414v2.414h-2.414v-2.414Zm2.414-2.414h2.414v2.414h-2.414V7.899Zm2.414 0h2.413v2.414h-2.413V7.899Zm0 2.414h2.413v2.414h-2.413v-2.414Zm-2.414 0h2.414v2.414h-2.414v-2.414Zm-16.896-4.827h2.414v2.413h-2.414V5.486Zm12.069-2.414h2.413v2.414h-2.413V3.072Zm2.413 2.414h2.414v2.413h-2.414V5.486Zm-2.413 0h2.413v2.413h-2.413V5.486Zm12.068 0h2.414v2.413h-2.414V5.486ZM152.507 22.38h2.414v2.414h-2.414v-2.414Zm2.414 0h2.413v2.414h-2.413v-2.414Zm0 2.414h2.413v2.414h-2.413v-2.414Zm0-4.827h2.413v2.413h-2.413v-2.413Zm-2.414 4.827h2.414v2.414h-2.414v-2.414Zm0 2.414h2.414v2.413h-2.414V27.21Zm0 2.413h2.414v2.414h-2.414v-2.414Zm2.414 0h2.413v2.414h-2.413v-2.414Zm0 2.414h2.413v2.414h-2.413v-2.414Zm0 2.414h2.413v2.413h-2.413V34.45Zm0-7.241h2.413v2.413h-2.413V27.21Zm-2.414-7.241h2.414v2.413h-2.414v-2.413Zm0 12.068h2.414v2.414h-2.414v-2.414Zm0 2.414h2.414v2.413h-2.414V34.45Zm0 2.413h2.414v2.414h-2.414v-2.413Zm9.655-14.482h2.413v2.414h-2.413v-2.414Zm0 2.414h2.413v2.414h-2.413v-2.414Zm0 2.414h2.413v2.413h-2.413V27.21Zm0 2.413h2.413v2.414h-2.413v-2.414Zm0 2.414h2.413v2.414h-2.413v-2.414Zm2.413 0h2.414v2.414h-2.414v-2.414Zm0-2.414h2.414v2.414h-2.414v-2.414Zm0-2.413h2.414v2.413h-2.414V27.21Zm0-2.414h2.414v2.414h-2.414v-2.414Zm0-2.414h2.414v2.414h-2.414v-2.414Zm4.828 0h2.413v2.414h-2.413v-2.414Zm0 2.414h2.413v2.414h-2.413v-2.414Zm0 2.414h2.413v2.413h-2.413V27.21Zm0 2.413h2.413v2.414h-2.413v-2.414Zm-2.414 0h2.414v2.414h-2.414v-2.414Zm0-2.413h2.414v2.413h-2.414V27.21Zm0-2.414h2.414v2.414h-2.414v-2.414Zm0-2.414h2.414v2.414h-2.414v-2.414Zm-9.655 26.55h2.414v2.415h-2.414v-2.414Zm0-2.413h2.414v2.414h-2.414v-2.414Zm2.414 0h2.414v2.414h-2.414v-2.414Zm0-2.413h2.414v2.413h-2.414v-2.413Zm2.414 0h2.413v2.413h-2.413v-2.413Zm2.413-2.414h2.414v2.414h-2.414V41.69Zm2.414-2.414h2.414v2.414h-2.414v-2.414Zm2.414-2.413h2.413v2.413h-2.413v-2.413Zm0-2.414h2.413v2.413h-2.413V34.45Zm0-2.414h2.413v2.414h-2.413v-2.414Zm-2.414 0h2.414v2.414h-2.414v-2.414Zm0 2.414h2.414v2.413h-2.414V34.45Zm0 2.413h2.414v2.414h-2.414v-2.413Zm-2.414-2.413h2.414v2.413h-2.414V34.45Zm0 2.413h2.414v2.414h-2.414v-2.413Zm0 2.414h2.414v2.414h-2.414v-2.414Zm-2.413-4.827h2.413v2.413h-2.413V34.45Zm0 2.413h2.413v2.414h-2.413v-2.413Zm0 2.414h2.413v2.414h-2.413v-2.414Zm0 2.414h2.413v2.414h-2.413V41.69Zm-7.241-4.828h2.413v2.414h-2.413v-2.413Zm0 2.414h2.413v2.414h-2.413v-2.414Zm0 2.414h2.413v2.414h-2.413V41.69Zm0 2.414h2.413v2.413h-2.413v-2.413Zm0 2.413h2.413v2.414h-2.413v-2.414Zm-2.414 2.414h2.414v2.414h-2.414v-2.414Zm0-2.414h2.414v2.414h-2.414v-2.414Zm0-2.413h2.414v2.413h-2.414v-2.413Zm0-2.414h2.414v2.414h-2.414V41.69Zm0-2.414h2.414v2.414h-2.414v-2.414Zm9.655-19.31h2.413v2.414h-2.413v-2.413Zm0-2.413h2.413v2.414h-2.413v-2.414Zm0-2.414h2.413v2.414h-2.413V15.14Zm2.413 0h2.414v2.414h-2.414V15.14Zm2.414 0h2.414v2.414h-2.414V15.14Zm2.414 0h2.413v2.414h-2.413V15.14Zm0 2.414h2.413v2.414h-2.413v-2.414Zm0 2.414h2.413v2.413h-2.413v-2.413Zm-2.414 0h2.414v2.413h-2.414v-2.413Zm-2.414 0h2.414v2.413h-2.414v-2.413Zm0-2.414h2.414v2.414h-2.414v-2.414Zm2.414 0h2.414v2.414h-2.414v-2.414Zm2.414-4.827h2.413v2.413h-2.413v-2.413Zm-2.414 0h2.414v2.413h-2.414v-2.413Zm-2.414 0h2.414v2.413h-2.414v-2.413Zm-2.413 0h2.413v2.413h-2.413v-2.413Zm-4.828-9.655h2.414v2.414h-2.414V3.072Zm2.414 0h2.414v2.414h-2.414V3.072Zm0 2.414h2.414v2.413h-2.414V5.486Zm-2.414 0h2.414v2.413h-2.414V5.486Zm-14.482 0h2.414v2.413h-2.414V5.486Zm-2.413-2.414h2.413v2.414h-2.413V3.072ZM138.025.658h2.414v2.414h-2.414V.658ZM159.748 7.9h2.414v2.414h-2.414V7.899Zm7.241-2.413h2.414v2.413h-2.414V5.486Zm-2.414-2.414h2.414v2.414h-2.414V3.072Zm12.069 0h2.414v2.414h-2.414V3.072Zm-4.828 4.827h2.414v2.414h-2.414V7.899Zm-19.309-2.413h2.414v2.413h-2.414V5.486Zm0-2.414h2.414v2.414h-2.414V3.072Zm2.414 0h2.413v2.414h-2.413V3.072Zm0-2.414h2.413v2.414h-2.413V.658Zm2.413 0h2.414v2.414h-2.414V.658Zm2.414 0h2.414v2.414h-2.414V.658Zm2.414 0h2.413v2.414h-2.413V.658Zm-7.241 4.828h2.413v2.413h-2.413V5.486Zm14.482 0h2.413v2.413h-2.413V5.486Zm2.413 0h2.414v2.413h-2.414V5.486Zm4.828-4.828h2.414v2.414h-2.414V.658Zm-2.414 2.414h2.414v2.414h-2.414V3.072Zm-26.55 4.827h2.413v2.414h-2.413V7.899Zm2.413 0h2.414v2.414h-2.414V7.899Zm-2.413 2.414h2.413v2.414h-2.413v-2.414Zm4.827 7.241h2.414v2.414h-2.414v-2.414Zm0-2.414h2.414v2.414h-2.414V15.14Zm2.414 2.414h2.413v2.414h-2.413v-2.414Zm0-2.414h2.413v2.414h-2.413V15.14Zm-2.414-2.413h2.414v2.413h-2.414v-2.413Zm2.414 0h2.413v2.413h-2.413v-2.413Zm-4.828 0h2.414v2.413h-2.414v-2.413Zm0-2.414h2.414v2.414h-2.414v-2.414Zm2.414 0h2.414v2.414h-2.414v-2.414Zm-28.964-7.241h2.413v2.414h-2.413V3.072Zm-2.414 0h2.414v2.414h-2.414V3.072Zm0-2.414h2.414v2.414h-2.414V.658Zm2.414 4.828h2.413v2.413h-2.413V5.486Zm2.413 2.413h2.414v2.414h-2.414V7.899Zm2.414 0h2.414v2.414h-2.414V7.899ZM186.263 10.313h2.414v2.414h-2.414v-2.414Zm-2.413 2.414h2.413v2.413h-2.413v-2.413Zm4.827-4.828h2.414v2.414h-2.414V7.899Zm2.414-2.413h2.413v2.413h-2.413V5.486Zm4.827-4.828h2.414v2.414h-2.414V.658Zm0 2.414h2.414v2.414h-2.414V3.072Zm4.827-2.414h2.414v2.414h-2.414V.658Zm0 2.414h2.414v2.414h-2.414V3.072Zm-2.413 0h2.413v2.414h-2.413V3.072Zm0-2.414h2.413v2.414h-2.413V.658Zm4.827 0h2.414v2.414h-2.414V.658Zm2.414 2.414h2.413v2.414h-2.413V3.072Zm-2.414 0h2.414v2.414h-2.414V3.072Zm7.241 0h2.414v2.414H210.4V3.072Zm-2.414 0h2.414v2.414h-2.414V3.072Zm7.241 2.414h2.414v2.413h-2.414V5.486Zm0 2.413h2.414v2.414h-2.414V7.899Zm0 2.414h2.414v2.414h-2.414v-2.414Zm-2.413-2.414h2.413v2.414h-2.413V7.899Zm0-2.413h2.413v2.413h-2.413V5.486Zm0-2.414h2.413v2.414h-2.413V3.072Zm16.896 0h2.413v2.414h-2.413V3.072Zm2.413-2.414h2.414v2.414h-2.414V.658Zm2.414 0h2.414v2.414h-2.414V.658Zm0 2.414h2.414v2.414h-2.414V3.072Zm-2.414 0h2.414v2.414h-2.414V3.072Zm7.241 2.414h2.414v2.413h-2.414V5.486Zm-21.723 2.413h2.414v2.414h-2.414V7.899Zm0 2.414h2.414v2.414h-2.414v-2.414Zm2.414 0h2.414v2.414h-2.414v-2.414Zm2.414 0h2.413v2.414h-2.413v-2.414Zm2.413 0h2.414v2.414h-2.414v-2.414Zm0 2.414h2.414v2.413h-2.414v-2.413Zm-2.413 0h2.413v2.413h-2.413v-2.413Zm-2.414 0h2.414v2.413h-2.414v-2.413Zm-12.069 2.413h2.414v2.414h-2.414V15.14Zm0 2.414h2.414v2.414h-2.414v-2.414Zm12.069-2.414h2.414v2.414h-2.414V15.14Zm2.414 0h2.413v2.414h-2.413V15.14Zm2.413 0h2.414v2.414h-2.414V15.14Zm0 2.414h2.414v2.414h-2.414v-2.414Zm-2.413 2.414h2.413v2.413h-2.413v-2.413Zm-2.414 0h2.414v2.413h-2.414v-2.413Zm2.414-2.414h2.413v2.414h-2.413v-2.414Zm-2.414 0h2.414v2.414h-2.414v-2.414Zm-2.414 4.827h2.414v2.414h-2.414v-2.414Zm0-2.413h2.414v2.413h-2.414v-2.413Zm2.414 2.413h2.414v2.414h-2.414v-2.414Zm2.414 0h2.413v2.414h-2.413v-2.414Zm-16.896-7.24h2.413v2.413h-2.413V15.14Zm0 2.413h2.413v2.414h-2.413v-2.414Zm0 2.414h2.413v2.413h-2.413v-2.413Zm0 2.413h2.413v2.414h-2.413v-2.414Zm2.413 12.069h2.414v2.413h-2.414V34.45Zm2.414 0h2.414v2.413H210.4V34.45Zm7.241-9.655h2.414v2.414h-2.414v-2.414Zm0 2.414h2.414v2.413h-2.414V27.21Zm0 2.413h2.414v2.414h-2.414v-2.414Zm0 2.414h2.414v2.414h-2.414v-2.414Zm2.414-7.24h2.414v2.413h-2.414v-2.414Zm0 2.413h2.414v2.413h-2.414V27.21Zm0 2.413h2.414v2.414h-2.414v-2.414Zm0 2.414h2.414v2.414h-2.414v-2.414Zm-2.414 4.828h2.414v2.413h-2.414v-2.413Zm2.414 0h2.414v2.413h-2.414v-2.413Zm2.414-2.414h2.413v2.413h-2.413V34.45Zm0-2.414h2.413v2.414h-2.413v-2.414Zm0-2.414h2.413v2.414h-2.413v-2.414Zm0-2.413h2.413v2.413h-2.413V27.21Zm0-2.414h2.413v2.414h-2.413v-2.414Zm0 12.069h2.413v2.413h-2.413v-2.413Zm2.413 2.413h2.414v2.414h-2.414v-2.414Zm0 2.414h2.414v2.414h-2.414V41.69Zm-2.413 0h2.413v2.414h-2.413V41.69Zm-2.414 0h2.414v2.414h-2.414V41.69Zm-2.414 0h2.414v2.414h-2.414V41.69Zm0-2.414h2.414v2.414h-2.414v-2.414Zm2.414 0h2.414v2.414h-2.414v-2.414Zm2.414 0h2.413v2.414h-2.413v-2.414Zm-28.965 7.241h2.414v2.414h-2.414v-2.414Zm-2.413 2.414h2.413v2.414h-2.413v-2.414Zm-2.414 2.414h2.414v2.413h-2.414v-2.413Zm28.964-7.241h2.414v2.413h-2.414v-2.413Zm2.414 0h2.414v2.413h-2.414v-2.413Zm2.414 0h2.413v2.413h-2.413v-2.413Zm2.413 0h2.414v2.413h-2.414v-2.413Zm-33.791 7.24h2.413v2.414h-2.413v-2.413Zm2.413 0h2.414v2.414h-2.414v-2.413Zm0 2.414h2.414v2.414h-2.414v-2.414Zm-2.413 0h2.413v2.414h-2.413v-2.414Zm4.827 0h2.414v2.414h-2.414v-2.414Zm12.068-2.413h2.414v2.413h-2.414v-2.413Zm0 2.413h2.414v2.414h-2.414v-2.414Zm-2.413 0h2.413v2.414h-2.413v-2.414Zm4.827-4.827h2.414v2.414H210.4v-2.414Zm7.241-2.414h2.414v2.414h-2.414v-2.414Zm2.414 0h2.414v2.414h-2.414v-2.414Zm2.414 0h2.413v2.414h-2.413v-2.414Zm2.413 0h2.414v2.414h-2.414v-2.414Zm0 2.414h2.414v2.414h-2.414v-2.414Zm-2.413 0h2.413v2.414h-2.413v-2.414Zm-2.414 0h2.414v2.414h-2.414v-2.414Zm-2.414 0h2.414v2.414h-2.414v-2.414Zm0 2.414h2.414v2.413h-2.414v-2.413Zm0 2.413h2.414v2.414h-2.414v-2.414Zm2.414 0h2.414v2.414h-2.414v-2.414Zm2.414 0h2.413v2.414h-2.413v-2.414Zm0-2.413h2.413v2.413h-2.413v-2.413Zm2.413 0h2.414v2.413h-2.414v-2.413Zm-4.827 0h2.414v2.413h-2.414v-2.413Zm4.827 2.413h2.414v2.414h-2.414v-2.414Zm-2.413 2.414h2.413v2.414h-2.413v-2.414Zm0 2.414h2.413V61h-2.413v-2.413Zm2.413 0h2.414V61h-2.414v-2.413Zm0-2.414h2.414v2.414h-2.414v-2.414Zm4.828 0h2.413v2.414h-2.413v-2.414Zm0 2.414h2.413V61h-2.413v-2.413Zm-2.414 0h2.414V61h-2.414v-2.413Zm7.241-7.241h2.414v2.413h-2.414v-2.413Zm0 2.413h2.414v2.414h-2.414v-2.414Zm-2.414 0h2.414v2.414h-2.414v-2.414Zm0 2.414h2.414v2.414h-2.414v-2.414Zm-12.068 0h2.414v2.414h-2.414v-2.414Zm-16.896 0h2.414v2.414h-2.414v-2.414Zm-2.414 0h2.414v2.414h-2.414v-2.414Zm0 2.414h2.414V61h-2.414v-2.413Zm2.414 0h2.414V61h-2.414v-2.413Zm-4.827-2.414h2.413v2.414h-2.413v-2.414Zm-2.414 2.414h2.414V61h-2.414v-2.413Zm2.414 0h2.413V61h-2.413v-2.413Zm-2.414-2.414h2.414v2.414h-2.414v-2.414Zm9.655 0h2.413v2.414h-2.413v-2.414Zm4.827-4.827h2.414v2.413H210.4v-2.413Zm26.551-48.274h2.413v2.414h-2.413V3.072Zm-50.688 50.687h2.414v2.414h-2.414v-2.414Zm7.241-4.827h2.414v2.414h-2.414v-2.414Zm33.792 7.241h2.414v2.414h-2.414v-2.414Zm-43.446 0h2.413v2.414h-2.413v-2.414Zm21.723-24.137h2.413v2.414h-2.413v-2.414Zm0-4.827h2.413v2.413h-2.413V27.21Zm0 2.413h2.413v2.414h-2.413v-2.414Zm0-4.827h2.413v2.414h-2.413v-2.414Zm2.413-4.827h2.414v2.413h-2.414v-2.413Zm0 2.413h2.414v2.414h-2.414v-2.414Zm-9.654 19.31h2.413v2.414h-2.413V41.69ZM210.4 5.486h2.414v2.413H210.4V5.486Zm14.482 31.378h2.414v2.413h-2.414v-2.413Zm-31.378 19.309h2.414v2.414h-2.414v-2.414Zm7.241-43.446h2.414v2.413h-2.414v-2.413Zm2.414 0h2.414v2.413h-2.414v-2.413Zm2.414 0h2.413v2.413h-2.413v-2.413Zm0-12.069h2.413v2.414h-2.413V.658Zm-2.414 36.206h2.414v2.413h-2.414v-2.413Zm33.792 12.068h2.413v2.414h-2.413v-2.414Zm-41.033-4.827h2.414v2.413h-2.414v-2.413Zm4.827-4.828h2.414v2.414h-2.414v-2.414Zm0 2.414h2.414v2.414h-2.414V41.69Zm-2.413 2.414h2.413v2.413h-2.413v-2.413Zm-2.414 2.413h2.414v2.414h-2.414v-2.414Zm0 2.414h2.414v2.414h-2.414v-2.414Zm9.655-14.482h2.413v2.413h-2.413V34.45Zm7.241 0h2.413v2.413h-2.413V34.45Zm-7.241 2.413h2.413v2.414h-2.413v-2.413Zm2.413 0h2.414v2.414h-2.414v-2.413Zm2.414 0h2.414v2.414H210.4v-2.413Zm-2.414-12.068h2.414v2.414h-2.414v-2.414Zm28.965 26.55h2.413v2.414h-2.413v-2.413Zm-9.655 2.414h2.414v2.414h-2.414v-2.414Zm0-48.273h2.414v2.413h-2.414V5.486Zm14.482 2.413h2.414v2.414h-2.414V7.899Zm-33.792 19.31h2.414v2.413h-2.414V27.21Zm0 2.413h2.414v2.414h-2.414v-2.414Zm0 2.414h2.414v2.414h-2.414v-2.414Zm12.069 2.414h2.414v2.413h-2.414V34.45Zm-2.414 0h2.414v2.413h-2.414V34.45Zm12.069 19.31h2.413v2.413h-2.413v-2.414Zm-31.378 0h2.413v2.413h-2.413v-2.414Zm2.413 0h2.414v2.413h-2.414v-2.414Zm2.414 0h2.414v2.413h-2.414v-2.414Zm-21.723 4.827h2.414V61h-2.414v-2.413ZM207.986.658h2.414v2.414h-2.414V.658Zm-21.723 50.688h2.414v2.413h-2.414v-2.413Zm-2.413 2.413h2.413v2.414h-2.413v-2.414Zm-2.414 2.414h2.414v2.414h-2.414v-2.414Zm7.241-2.414h2.414v2.414h-2.414v-2.414Zm26.55-19.31h2.414v2.415h-2.414V34.45Zm-2.413 2.415h2.413v2.413h-2.413v-2.413Zm4.827-24.137h2.414v2.413h-2.414v-2.413Zm4.828-4.828h2.413v2.414h-2.413V7.899Zm2.413 0h2.414v2.414h-2.414V7.899Zm-4.827 0h2.414v2.414h-2.414V7.899Zm-2.414-2.413h2.414v2.413h-2.414V5.486Zm-9.655 0h2.414v2.413h-2.414V5.486Zm9.655 9.654h2.414v2.414h-2.414V15.14Zm-28.964 33.792h2.414v2.414h-2.414v-2.414Zm7.241 2.414h2.414v2.413h-2.414v-2.413Zm2.414 0h2.413v2.413h-2.413v-2.413Zm4.827-41.033h2.414v2.414h-2.414v-2.414Zm7.241-2.414h2.414v2.414H210.4V7.899Zm2.414 2.414h2.413v2.414h-2.413v-2.414Zm2.413 2.414h2.414v2.413h-2.414v-2.413Zm2.414 4.827h2.414v2.414h-2.414v-2.414Zm-7.241 0h2.414v2.414H210.4v-2.414Zm0 2.414h2.414v2.413H210.4v-2.413Zm0 2.413h2.414v2.414H210.4v-2.414Zm0 2.414h2.414v2.414H210.4v-2.414Zm0 2.414h2.414v2.413H210.4V27.21Zm0 2.413h2.414v2.414H210.4v-2.414Zm0 2.414h2.414v2.414H210.4v-2.414ZM198.332 15.14h2.413v2.414h-2.413V15.14Zm-2.414 2.414h2.414v2.414h-2.414v-2.414Zm-2.414 2.414h2.414v2.413h-2.414v-2.413Zm7.241-4.828h2.414v2.414h-2.414V15.14Zm-2.413 2.414h2.413v2.414h-2.413v-2.414Zm-2.414 2.414h2.414v2.413h-2.414v-2.413Zm-2.414 2.413h2.414v2.414h-2.414v-2.414Zm9.655-7.24h2.414v2.413h-2.414V15.14Zm0 2.413h2.414v2.414h-2.414v-2.414ZM229.71 5.486h2.413v2.413h-2.413V5.486Zm-2.414 2.413h2.414v2.414h-2.414V7.899Zm9.655-2.413h2.413v2.413h-2.413V5.486Zm-2.414 0h2.414v2.413h-2.414V5.486Zm2.414 2.413h2.413v2.414h-2.413V7.899Zm2.413 0h2.414v2.414h-2.414V7.899Zm-7.241-2.413h2.414v2.413h-2.414V5.486Zm2.414 2.413h2.414v2.414h-2.414V7.899Zm2.414 2.414h2.413v2.414h-2.413v-2.414Zm2.413 0h2.414v2.414h-2.414v-2.414Zm-7.241-2.414h2.414v2.414h-2.414V7.899Zm2.414 2.414h2.414v2.414h-2.414v-2.414Zm2.414 2.414h2.413v2.413h-2.413v-2.413ZM183.85 15.14h2.413v2.414h-2.413V15.14Zm2.413-2.413h2.414v2.413h-2.414v-2.413Zm2.414-2.414h2.414v2.414h-2.414v-2.414Zm2.414-2.414h2.413v2.414h-2.413V7.899Zm2.413-2.413h2.414v2.413h-2.414V5.486Zm0-2.414h2.414v2.414h-2.414V3.072ZM210.4.658h2.414v2.414H210.4V.658Zm4.827 2.414h2.414v2.414h-2.414V3.072Zm4.828 2.414h2.414v2.413h-2.414V5.486Zm-2.414-2.414h2.414v2.414h-2.414V3.072ZM215.227.658h2.414v2.414h-2.414V.658Zm-2.413 0h2.413v2.414h-2.413V.658Zm-12.069 16.896h2.414v2.414h-2.414v-2.414Zm2.414 2.414h2.414v2.413h-2.414v-2.413Zm-2.414 0h2.414v2.413h-2.414v-2.413Zm2.414 2.413h2.414v2.414h-2.414v-2.414Zm2.414 16.896h2.413v2.414h-2.413v-2.414Zm-2.414 0h2.414v2.414h-2.414v-2.414Zm0 2.414h2.414v2.414h-2.414V41.69Zm-2.414 2.414h2.414v2.413h-2.414v-2.413Zm-2.413 2.413h2.413v2.414h-2.413v-2.414Zm26.55-12.068h2.414v2.413h-2.414V34.45Zm0-2.414h2.414v2.414h-2.414v-2.414Zm0-2.414h2.414v2.414h-2.414v-2.414Zm0-2.413h2.414v2.413h-2.414V27.21Zm0-2.414h2.414v2.414h-2.414v-2.414Zm0-2.414h2.414v2.414h-2.414v-2.414Zm0-2.413h2.414v2.413h-2.414v-2.413ZM251.454 5.486h2.414v2.413h-2.414V5.486Zm-2.414 0h2.414v2.413h-2.414V5.486Zm0 2.413h2.414v2.414h-2.414V7.899Zm4.828-4.827h2.413v2.414h-2.413V3.072Zm0-2.414h2.413v2.414h-2.413V.658Zm2.413 0h2.414v2.414h-2.414V.658Zm0 2.414h2.414v2.414h-2.414V3.072Zm2.414-2.414h2.414v2.414h-2.414V.658Zm2.414 2.414h2.413v2.414h-2.413V3.072Zm-2.414 0h2.414v2.414h-2.414V3.072Zm0 2.414h2.414v2.413h-2.414V5.486Zm2.414 0h2.413v2.413h-2.413V5.486Zm0 2.413h2.413v2.414h-2.413V7.899Zm2.413-2.413h2.414v2.413h-2.414V5.486Zm2.414 0h2.414v2.413h-2.414V5.486Zm0 2.413h2.414v2.414h-2.414V7.899Zm-2.414 0h2.414v2.414h-2.414V7.899Zm7.242 2.414h2.413v2.414h-2.413v-2.414Zm-2.414 0h2.414v2.414h-2.414v-2.414Zm0 2.414h2.414v2.413h-2.414v-2.413Zm2.414 0h2.413v2.413h-2.413v-2.413Zm0 2.413h2.413v2.414h-2.413V15.14Zm0 2.414h2.413v2.414h-2.413v-2.414Zm-2.414 0h2.414v2.414h-2.414v-2.414Zm0-2.414h2.414v2.414h-2.414V15.14Zm0 4.828h2.414v2.413h-2.414v-2.413Zm0 2.413h2.414v2.414h-2.414v-2.414Zm2.414 0h2.413v2.414h-2.413v-2.414Zm0-2.413h2.413v2.413h-2.413v-2.413Zm-2.414 4.827h2.414v2.414h-2.414v-2.414Zm2.414 0h2.413v2.414h-2.413v-2.414Zm0 2.414h2.413v2.413h-2.413V27.21Zm-2.414 0h2.414v2.413h-2.414V27.21Zm0 2.413h2.414v2.414h-2.414v-2.414Zm0 2.414h2.414v2.414h-2.414v-2.414Zm2.414 0h2.413v2.414h-2.413v-2.414Zm0-2.414h2.413v2.414h-2.413v-2.414Zm12.068-19.309h2.414v2.414h-2.414v-2.414Zm2.414 0h2.413v2.414h-2.413v-2.414Zm0 2.414h2.413v2.413h-2.413v-2.413Zm0 2.413h2.413v2.414h-2.413V15.14Zm0 2.414h2.413v2.414h-2.413v-2.414Zm0 2.414h2.413v2.413h-2.413v-2.413Zm0 2.413h2.413v2.414h-2.413v-2.414Zm0 2.414h2.413v2.414h-2.413v-2.414Zm0 2.414h2.413v2.413h-2.413V27.21Zm-2.414 0h2.414v2.413h-2.414V27.21Zm0 2.413h2.414v2.414h-2.414v-2.414Zm0 2.414h2.414v2.414h-2.414v-2.414Zm2.414 0h2.413v2.414h-2.413v-2.414Zm0-2.414h2.413v2.414h-2.413v-2.414Zm-2.414-4.827h2.414v2.414h-2.414v-2.414Zm0-12.068h2.414v2.413h-2.414v-2.413ZM268.35 44.105h2.414v2.413h-2.414v-2.413Zm0-2.414h2.414v2.414h-2.414V41.69Zm0-2.414h2.414v2.414h-2.414v-2.414Zm0-2.413h2.414v2.413h-2.414v-2.413Zm2.414 0h2.413v2.413h-2.413v-2.413Zm0-2.414h2.413v2.413h-2.413V34.45Zm0 4.827h2.413v2.414h-2.413v-2.414Zm0 2.414h2.413v2.414h-2.413V41.69Zm0 2.414h2.413v2.413h-2.413v-2.413Zm-2.414-9.655h2.414v2.413h-2.414V34.45Zm14.482 12.068h2.414v2.414h-2.414v-2.414Zm2.414 0h2.413v2.414h-2.413v-2.414Zm0-2.413h2.413v2.413h-2.413v-2.413Zm0-2.414h2.413v2.414h-2.413V41.69Zm0-2.414h2.413v2.414h-2.413v-2.414Zm0-2.413h2.413v2.413h-2.413v-2.413Zm0-2.414h2.413v2.413h-2.413V34.45Zm-2.414 0h2.414v2.413h-2.414V34.45Zm0 2.413h2.414v2.414h-2.414v-2.413Zm0 2.414h2.414v2.414h-2.414v-2.414Zm0 2.414h2.414v2.414h-2.414V41.69Zm0 2.414h2.414v2.413h-2.414v-2.413ZM251.454 3.072h2.414v2.414h-2.414V3.072Zm9.655-2.414h2.413v2.414h-2.413V.658Zm2.413 2.414h2.414v2.414h-2.414V3.072Zm7.242 4.827h2.413v2.414h-2.413V7.899Zm-4.828 2.414h2.414v2.414h-2.414v-2.414Zm2.414-2.414h2.414v2.414h-2.414V7.899Zm-4.828 2.414h2.414v2.414h-2.414v-2.414Zm2.414 2.414h2.414v2.413h-2.414v-2.413ZM263.522.658h2.414v2.414h-2.414V.658Zm2.414 2.414h2.414v2.414h-2.414V3.072Zm2.414 2.414h2.414v2.413h-2.414V5.486Zm-12.069 0h2.414v2.413h-2.414V5.486Zm2.414 2.413h2.414v2.414h-2.414V7.899Zm2.414 2.414h2.413v2.414h-2.413v-2.414Zm2.413 2.414h2.414v2.413h-2.414v-2.413Zm2.414 2.413h2.414v2.414h-2.414V15.14Zm16.896 33.792h2.414v2.414h-2.414v-2.414Zm0 2.414h2.414v2.413h-2.414v-2.413Zm2.414 0h2.413v2.413h-2.413v-2.413Zm0 2.413h2.413v2.414h-2.413v-2.414Zm0-4.827h2.413v2.414h-2.413v-2.414Zm-2.414 4.827h2.414v2.414h-2.414v-2.414Zm-2.414 0h2.414v2.414h-2.414v-2.414Zm-2.413 0h2.413v2.414h-2.413v-2.414Zm-4.828-43.446h2.414v2.414h-2.414v-2.414Zm2.414 0h2.414v2.414h-2.414v-2.414Zm0 2.414h2.414v2.413h-2.414v-2.413Zm0 2.413h2.414v2.414h-2.414V15.14Zm0 2.414h2.414v2.414h-2.414v-2.414Zm0 2.414h2.414v2.413h-2.414v-2.413Zm0 4.827h2.414v2.414h-2.414v-2.414Zm0 4.827h2.414v2.414h-2.414v-2.414Zm0 2.414h2.414v2.414h-2.414v-2.414Zm0 2.414h2.414v2.413h-2.414V34.45Zm0 2.413h2.414v2.414h-2.414v-2.413Zm0 2.414h2.414v2.414h-2.414v-2.414Zm0 4.828h2.414v2.413h-2.414v-2.413Zm0-2.414h2.414v2.414h-2.414V41.69Zm0-14.482h2.414v2.413h-2.414V27.21Zm0-4.828h2.414v2.414h-2.414v-2.414Zm-2.414-9.654h2.414v2.413h-2.414v-2.413Zm0 2.413h2.414v2.414h-2.414V15.14Zm0 2.414h2.414v2.414h-2.414v-2.414Zm0 7.241h2.414v2.414h-2.414v-2.414Zm0 2.414h2.414v2.413h-2.414V27.21Zm0 2.413h2.414v2.414h-2.414v-2.414Zm0 2.414h2.414v2.414h-2.414v-2.414Zm0 2.414h2.414v2.413h-2.414V34.45Zm0 2.413h2.414v2.414h-2.414v-2.413Zm0 2.414h2.414v2.414h-2.414v-2.414Zm0 2.414h2.414v2.414h-2.414V41.69Zm0 2.414h2.414v2.413h-2.414v-2.413Zm0-21.724h2.414v2.414h-2.414v-2.414Zm0-2.413h2.414v2.413h-2.414v-2.413Zm9.655 2.413h2.414v2.414h-2.414v-2.414Zm0-2.413h2.414v2.413h-2.414v-2.413Zm0-2.414h2.414v2.414h-2.414v-2.414Zm0-2.414h2.414v2.414h-2.414V15.14Zm-12.068 38.62h2.413v2.413h-2.413v-2.414Zm2.413 0h2.414v2.413h-2.414v-2.414Zm2.414 0h2.414v2.413h-2.414v-2.414Zm-7.241-2.414h2.414v2.413h-2.414v-2.413Zm2.414 0h2.413v2.413h-2.413v-2.413Zm2.413 0h2.414v2.413h-2.414v-2.413Zm-2.413 4.827h2.413v2.414h-2.413v-2.414Zm0 2.414h2.413V61h-2.413v-2.413Zm-2.414-2.414h2.414v2.414h-2.414v-2.414Zm0-2.414h2.414v2.414h-2.414v-2.414Zm7.241-2.413h2.414v2.413h-2.414v-2.413Zm2.414 0h2.413v2.413h-2.413v-2.413Zm2.413 0h2.414v2.413h-2.414v-2.413Zm-14.482 0h2.414v2.413h-2.414v-2.413Zm-2.414 0h2.414v2.413h-2.414v-2.413Zm0 2.413h2.414v2.414h-2.414v-2.414Zm2.414 0h2.414v2.414h-2.414v-2.414Zm-4.827 2.414h2.413v2.414h-2.413v-2.414Zm-2.414 2.414h2.414V61h-2.414v-2.413Zm14.482-2.414h2.414v2.414h-2.414v-2.414Zm2.414 0h2.414v2.414h-2.414v-2.414Zm0 2.414h2.414V61h-2.414v-2.413Zm-2.414 0h2.414V61h-2.414v-2.413Zm4.828-2.414h2.413v2.414h-2.413v-2.414Zm2.413 0h2.414v2.414h-2.414v-2.414Zm-2.413 2.414h2.413V61h-2.413v-2.413Zm12.068-2.414h2.414v2.414h-2.414v-2.414Zm-2.414 0h2.414v2.414h-2.414v-2.414Zm2.414 2.414h2.414V61h-2.414v-2.413Zm2.414 0h2.413V61h-2.413v-2.413Zm2.413-2.414h2.414v2.414H294.9v-2.414Zm-2.413 0h2.413v2.414h-2.413v-2.414Zm-4.828-4.827h2.414v2.413h-2.414v-2.413Zm2.414 0h2.414v2.413h-2.414v-2.413Zm2.414 0h2.413v2.413h-2.413v-2.413Zm2.413 0h2.414v2.413H294.9v-2.413Zm0 2.413h2.414v2.414H294.9v-2.414Zm-2.413 0h2.413v2.414h-2.413v-2.414Zm-2.414 0h2.414v2.414h-2.414v-2.414Zm-2.414 0h2.414v2.414h-2.414v-2.414Zm9.655-2.413h2.414v2.413h-2.414v-2.413Zm2.414 0h2.413v2.413h-2.413v-2.413Zm-2.414 2.413h2.414v2.414h-2.414v-2.414Zm4.827-4.827h2.414v2.414h-2.414v-2.414Zm0-2.414h2.414v2.414h-2.414v-2.414ZM287.659 7.9h2.414v2.414h-2.414V7.899Zm2.414 0h2.414v2.414h-2.414V7.899Zm0-2.413h2.414v2.413h-2.414V5.486Zm-12.068 2.413h2.413v2.414h-2.413V7.899Zm2.413 0h2.414v2.414h-2.414V7.899Zm2.414 0h2.414v2.414h-2.414V7.899Zm-7.241 0h2.414v2.414h-2.414V7.899Zm2.414-2.413h2.413v2.413h-2.413V5.486Zm2.413 0h2.414v2.413h-2.414V5.486Zm7.241 4.827h2.414v2.414h-2.414v-2.414Zm-26.55 43.446h2.413v2.414h-2.413v-2.414Zm-2.414 2.414h2.414v2.414h-2.414v-2.414Zm41.033-7.241h2.413v2.414h-2.413v-2.414Zm-12.069 0h2.414v2.414h-2.414v-2.414Zm-21.723-28.964h2.414v2.413h-2.414v-2.413Zm-2.414 0h2.414v2.413h-2.414v-2.413Zm0 2.413h2.414v2.414h-2.414v-2.414Zm2.414 0h2.414v2.414h-2.414v-2.414Zm0 7.241h2.414v2.414h-2.414v-2.414Zm-2.414 0h2.414v2.414h-2.414v-2.414Zm0 2.414h2.414v2.414h-2.414v-2.414Zm2.414 0h2.414v2.414h-2.414v-2.414Zm-4.827-12.068h2.413v2.413h-2.413v-2.413Zm-2.414 0h2.414v2.413h-2.414v-2.413Zm0 2.413h2.414v2.414h-2.414v-2.414Zm2.414 0h2.413v2.414h-2.413v-2.414Zm0 7.241h2.413v2.414h-2.413v-2.414Zm-2.414 0h2.414v2.414h-2.414v-2.414Zm0 2.414h2.414v2.414h-2.414v-2.414Zm2.414 0h2.413v2.414h-2.413v-2.414Z" fill="#fff"/></svg>