<svg xmlns="http://www.w3.org/2000/svg" width="16" height="16" fill="none" viewBox="0 0 16 16">
  <path d="M9.19 5.66h.57v.57H9.2v-.57Zm-.57 0h.57v.57h-.57v-.57Zm0 .57h.57v.57h-.57v-.57Zm0 .57h.57v.57h-.57V6.8Zm.57 0h.57v.57H9.2V6.8Zm0-.57h.57v.57H9.2v-.57ZM6.91 7.37h.57v.57h-.57v-.57Zm0 .57h.57v.57h-.57v-.57Zm0 .57h.57v.57h-.57V8.5Zm-.57 0h.57v.57h-.57V8.5Zm0-.57h.57v.57h-.57v-.57Zm0-.57h.57v.57h-.57v-.57Zm-1.15 0h.57v.57h-.57v-.57Zm0 .57h.57v.57h-.57v-.57Zm0 .57h.57v.57h-.57V8.5Zm0 .57h.57v.57h-.57v-.57Zm.57-.57h.57v.57h-.57V8.5Zm0-.57h.57v.57h-.57v-.57Zm0-.57h.57v.57h-.57v-.57Zm-1.14 1.15h.57v.57h-.57V8.5Zm-.57 0h.57v.57h-.57V8.5Zm-.57 0h.57v.57h-.57V8.5Zm-.57 0h.57v.57h-.57V8.5Zm0 .57h.57v.57h-.57v-.57Zm.57 0h.57v.57h-.57v-.57Zm.57 0h.57v.57h-.57v-.57Zm.57 0h.57v.57h-.57v-.57Zm1.14 0h.57v.57h-.57v-.57Zm.57 0h.57v.57h-.57v-.57Zm.57 0h.57v.57h-.57v-.57ZM10.9 1.64h.57v.57h-.57v-.57Zm.57 0h.57v.57h-.57v-.57Zm0 .57h.57v.57h-.57V2.2Zm0 .57h.57v.57h-.57v-.57Zm0 .57h.57v.57h-.57v-.57Zm-.57 0h.57v.57h-.57v-.57Zm0 .57h.57v.57h-.57v-.57Zm0 .57h.57v.58h-.57v-.58Zm0 .58h.57v.57h-.57v-.57Zm0 .57h.57v.57h-.57v-.57Zm0 .57h.57v.57h-.57v-.57Zm0 .57h.57v.57h-.57V6.8Zm.57-.57h.57v.57h-.57v-.57Zm0-.57h.57v.57h-.57v-.57Zm0-.57h.57v.57h-.57v-.57Zm-.57 0h.57v.58h-.57v-.58Zm0-.57h.57v.57h-.57v-.57Zm0 2.86h.57v.57h-.57v-.57Zm.57-4h.57v.57h-.57v-.57Zm.57 0h.57v.57h-.57v-.57Zm0 .57h.57v.57h-.57v-.57Zm0 .57h.57v.57h-.57v-.57Zm0 .57h.57v.58h-.57v-.58Zm-.57 0h.57v.58h-.57v-.58Zm0 .58h.57v.57h-.57v-.57Zm0 .57h.57v.57h-.57v-.57Zm0 .57h.57v.57h-.57v-.57Zm0-2.29h.57v.57h-.57v-.57Zm0-.57h.57v.57h-.57v-.57Zm0 3.43h.57v.57h-.57v-.57Zm.57-.57h.57v.57h-.57v-.57Zm0-.57h.57v.57h-.57v-.57Zm0-.57h.57v.57h-.57v-.57Zm-1.71 2.28h.57v.57h-.57v-.57Zm0 .57h.57v.57h-.57v-.57Zm.57-.57h.57v.57h-.57v-.57Zm1.71-4.57h.57v.57h-.57v-.57Zm.57 0h.57v.57h-.57v-.57Zm-.57.57h.57v.57h-.57v-.57Zm1.14-1.14h.57v.57h-.57v-.57Zm-2.28 0h.57v.57h-.57v-.57Zm1.71 0h.57v.57h-.57v-.57Zm-4.57.57h.57v.57h-.57v-.57Zm0 .57h.57v.57h-.57v-.57Zm-.57 0h.57v.57h-.57v-.57Zm-.57.57h.57v.57h-.57v-.57Zm0 .57h.57v.58h-.57v-.58Zm-.57 0h.57v.58h-.57v-.58Zm2.28-2.28h.57v.57h-.57v-.57Zm.57-.57h.57v.57h-.57v-.57Zm0 .57h.57v.57h-.57v-.57Zm.57 0h.57v.57h-.57v-.57Zm0 .57h.57v.57h-.57v-.57ZM14.36 1.64h.57v.57h-.57v-.57ZM8.62 3.93h.57v.57h-.57v-.57Zm-1.14 1.14h.57v.57h-.57v-.57Zm2.29-2.29h.57v.57h-.57v-.57ZM10.33 8.5h.57v.57h-.57V8.5Zm-.57 0h.57v.57h-.57V8.5Zm0 .57h.57v.57h-.57v-.57Zm.57 0h.57v.57h-.57v-.57ZM9.19 8.5h.57v.57h-.57V8.5Zm-.57 0h.57v.57h-.57V8.5Zm0 .57h.57v.57h-.57v-.57Zm.57 0h.57v.57H9.2v-.57ZM5.2 9.07h.57v.58H5.2v-.58Zm0 .58h.57v.57H5.2v-.57Zm.57 0h.57v.57h-.57v-.57Zm0-.58h.57v.58h-.57v-.58Zm0 1.15h.57v.57h-.57v-.57Zm0 .57h.57v.57h-.57v-.57Zm-.57 0h.57v.57h-.57v-.57Zm0-.57h.57v.57h-.57v-.57Zm1.14 0h.57v.57h-.57v-.57Zm0-.57h.57v.57h-.57v-.57Zm0-.58h.57v.58h-.57v-.58Zm.57 0h.57v.58h-.57v-.58Zm0 .58h.57v.57h-.57v-.57Zm0 .57h.57v.57h-.57v-.57Zm0 .57h.57v.57h-.57v-.57Zm-.57 0h.57v.57h-.57v-.57Zm2.28-.57h.57v.57h-.57v-.57Zm.57 0h.57v.57h-.57v-.57Zm0 .57h.57v.57h-.57v-.57Zm-.57 0h.57v.57h-.57v-.57Zm0 .57h.57v.57h-.57v-.57Zm.57 0h.57v.57h-.57v-.57Zm-.57 1.14h.57v.57h-.57v-.57Zm2.29-3.43h.57v.58h-.57v-.58Zm.57 0h.57v.58h-.57v-.58Zm0 .58h.57v.57h-.57v-.57Zm0 .57h.57v.57h-.57v-.57Zm-.57 0h.57v.57h-.57v-.57Zm0 .57h.57v.57h-.57v-.57Zm0-1.14h.57v.57h-.57v-.57Zm0-.57h.57v.57h-.57v-.57Zm0 2.85h.57v.57h-.57v-.57Zm.57 0h.57v.57h-.57v-.57Zm0-1.14h.57v.57h-.57v-.57Zm.57-1.71h.57v.58h-.57v-.58Zm.57.58h.57v.57h-.57v-.57Zm0 .57h.57v.57h-.57v-.57Zm-.57 0h.57v.57h-.57v-.57Zm0-.57h.57v.57h-.57v-.57Zm0 1.14h.57v.57h-.57v-.57Zm.57 0h.57v.57h-.57v-.57Zm-.57 1.14h.57v.57h-.57v-.57Zm.57 0h.57v.57h-.57v-.57Zm-7.43-1.14h.57v.57h-.57v-.57Zm.57 0h.57v.57h-.57v-.57Zm.57 0h.57v.57h-.57v-.57Zm0 1.14h.57v.57h-.57v-.57Zm.57 0h.57v.57h-.57v-.57Zm0-1.14h.57v.57h-.57v-.57Zm-1.14 1.14h.57v.57h-.57v-.57Zm-.57-.57h.57v.57h-.57v-.57Zm.57 0h.57v.57h-.57v-.57Zm.57 0h.57v.57h-.57v-.57Zm.57 0h.57v.57h-.57v-.57Zm4 0h.57v.57h-.57v-.57Zm.57 0h.57v.57h-.57v-.57Zm.57 0h.57v.57h-.57v-.57Zm.57 0h.57v.57h-.57v-.57Zm-1.71 1.14h.57v.57h-.57v-.57Zm0 .57h.57v.57h-.57V14.2Zm.57 0h.57v.57h-.57V14.2Zm.57 0h.57v.57h-.57V14.2Zm.57 0h.57v.57h-.57V14.2Zm0-.57h.57v.57h-.57v-.57Zm-.57 0h.57v.57h-.57v-.57Zm-.57 0h.57v.57h-.57v-.57Zm1.14 1.14h.57v.58h-.57v-.58Zm-.57 0h.57v.58h-.57v-.58Zm0 .58h.57v.57h-.57V16Zm.57 0h.57v.57h-.57V16Zm.57 0h.57v.57h-.57V16Zm0-.58h.57v.58h-.57v-.58Zm.57 0h.57v.58h-.57v-.58Zm0 .58h.57v.57h-.57V16Zm1.14-1.71h.57v.57h-.57v-.57Zm0 .57h.57v.57h-.57V14.2Zm-.57 0h.57v.57h-.57V14.2ZM7.48 5.09h.57v.58h-.57v-.58Zm0 .58h.57v.57h-.57v-.57Zm0 .57h.57v.57h-.57v-.57Zm0 .57h.57v.57h-.57V6.8Zm0 .57h.57v.57h-.57v-.57Zm-.57 0h.57v.57h-.57v-.57Zm-1.14-1.71h.57v.58h-.57v-.58Zm0 1.71h.57v.57h-.57v-.57Zm.57 0h.57v.57h-.57v-.57Zm0-4h.57v.57h-.57v-.57Zm0 .57h.57v.57h-.57v-.57Zm.57-.57h.57v.57h-.57v-.57Zm0 .57h.57v.57h-.57v-.57Zm.57 0h.57v.57h-.57v-.57Zm0 .57h.57v.57h-.57v-.57Zm-.57 0h.57v.57h-.57v-.57Zm-1.14.57h.57v.58h-.57v-.58Zm0-1.14h.57v.57h-.57v-.57Zm0 .57h.57v.57h-.57v-.57Zm0-2.29h.57v.57h-.57v-.57Zm0 .57h.57v.57h-.57v-.57Zm.57 0h.57v.57h-.57v-.57ZM4.6 1.64h.57v.57H4.6v-.57Zm-.57 0h.57v.57h-.57v-.57Zm.57.57h.57v.57H4.6V2.2Zm-1.14 0h.57v.57h-.57V2.2Zm0-.57h.57v.57h-.57v-.57Zm1.71 1.14h.57v.57h-.57v-.57Zm-.57 0h.57v.57h-.57v-.57Zm-1.14 0h.57v.57h-.57v-.57Zm1.14.57h.57v.57h-.57v-.57Zm-.57 0h.57v.57h-.57v-.57Zm-.57 0h.57v.57h-.57v-.57Zm.57-.57h.57v.57h-.57v-.57Zm0-.57h.57v.57h-.57v-.57ZM1.73 4h.57v.57h-.57V4Zm.57 0h.57v.57H2.3V4Zm.57 0h.57v.57h-.57V4Zm.57 0h.57v.57h-.57V4Zm0 .57h.57v.57h-.57v-.57Zm-.57 0h.57v.57H2.3v-.57Zm-.57 0h.57v.57h-.57v-.57Zm-.57 0h.57v.57h-.57v-.57Zm2.28-1.14h.57v.57h-.57v-.57Zm0 .57h.57v.57h-.57v-.57Zm.57-2.29h.57v.57h-.57v-.57Zm0 .57h.57v.58h-.57v-.58Zm0 .58h.57v.57h-.57v-.57Zm0 .57h.57v.57h-.57v-.57Zm0 .57h.57v.57h-.57v-.57Zm.57 0h.57v.57h-.57v-.57Zm0-.57h.57v.57h-.57v-.57Zm0-.57h.57v.57h-.57v-.57Zm0-.58h.57v.58h-.57v-.58Zm1.14-.57h.57v.57h-.57v-.57Zm-3.42 0h.57v.57h-.57v-.57Zm.57.57h.57v.58h-.57v-.58Zm0-.57h.57v.57h-.57v-.57Zm2.29 11.43h.57V16h-.57v-.57Zm-.57 0h.57V16h-.57v-.57Zm0-.58h.57v.58h-.57v-.58Zm.57 0h.57v.58h-.57v-.58Zm.57-.57h.57v.57h-.57V14.2Zm.57-.57h.57v.57h-.57v-.57Zm0 .57h.57v.57h-.57V14.2Zm.57-1.71h.57v.57h-.57v-.57Zm.57 0h.57v.57h-.57v-.57Zm0 .57h.57v.57h-.57v-.57Zm-4.57.57h.57v.57h-.57v-.57Zm-.57 0h.57v.57h-.57v-.57Zm0 .57h.57v.57h-.57V14.2Zm.57 0h.57v.57h-.57V14.2Zm1.14.57h.57v.58h-.57v-.58Zm-.57 0h.57v.58h-.57v-.58Zm0 .58h.57V16h-.57v-.57Zm.57 0h.57V16h-.57v-.57Zm-.57-1.71h.57v.57h-.57v-.57Zm.57 0h.57v.57h-.57v-.57Zm1.14.57h.57v.57h-.57V14.2Zm-.57 0h.57v.57h-.57V14.2Zm-.57 0h.57v.57h-.57V14.2Zm-.57 0h.57v.57h-.57V14.2Zm-.57-1.14h.57v.57h-.57v-.57Zm-.57 0h.57v.57h-.57v-.57Zm-.57.57h.57v.57h-.57v-.57Zm-.57 0h.57v.57h-.57v-.57Zm0 .57h.57v.57h-.57V14.2Zm.57 0h.57v.57h-.57V14.2Zm-1.14-.57h.57v.57h-.57v-.57Zm0 .57h.57v.57h-.57V14.2Zm-.57 0h.57v.57h-.57V14.2Zm0-.57h.57v.57h-.57v-.57Zm-.57 1.14h.57v.58h-.57v-.58Zm-.57 0h.57v.58h-.57v-.58Zm0 .58h.57V16h-.57v-.57Zm.57-1.15h.57v.57h-.57V14.2Zm1.71-1.14h.57v.57h-.57v-.57Zm.57 0h.57v.57h-.57v-.57Zm4 1.71h.57v.57h-.57v-.57Zm1.14-1.14h.57v.57h-.57v-.57Zm-4 1.14h.57v.58h-.57v-.58Zm-.57 0h.57v.58h-.57v-.58Zm1.14-1.71h.57v.57h-.57v-.57Zm-1.71 1.71h.57v.57h-.57v-.57Zm.57.57h.57V16h-.57v-.57Zm.57 0h.57V16h-.57v-.57ZM12.6 15.43h.57v.58h-.57v-.58ZM15.45 15.43h.57v.58h-.57v-.58Zm-1.14-.57h.57v.57h-.57V14.2ZM10.33 2.78h.57v.57h-.57v-.57Zm0 .57h.57v.57h-.57v-.57Zm-.57 0h.57v.57h-.57v-.57Zm.57.57h.57v.57h-.57v-.57ZM2.86 2.78h.57v.57h-.57v-.57Zm-.57.57h.57v.57h-.57v-.57Zm.57 0h.57v.57h-.57v-.57Zm-1.14-.57h.57v.57h-.57v-.57Zm-.57 0h.57v.57h-.57v-.57Zm0-.57h.57v.57h-.57v-.57Zm.57 1.14h.57v.57h-.57v-.57Zm.57.57h.57v.57h-.57v-.57Zm.57 0h.57v.57h-.57v-.57Z" fill="#000"/>
</svg> 